RobotoSerifText-RegularWideItalic.ufo
<glyph name="quotesingle" format="2">
  <advance width="275"/>
  <unicode hex="0027"/>
  <outline>
    <contour>
      <point x="217" y="710" type="line"/>
      <point x="201" y="629"/>
      <point x="170" y="595"/>
      <point x="146" y="474" type="curve"/>
      <point x="89" y="474" type="line"/>
      <point x="115" y="597"/>
      <point x="100" y="632"/>
      <point x="116" y="710" type="curve"/>
    </contour>
  </outline>
</glyph>
<glyph name="asterisk" format="2">
  <advance width="459"/>
  <unicode hex="002A"/>
  <outline>
    <contour>
      <point x="69" y="606" type="curve"/>
      <point x="120" y="663" type="line"/>
      <point x="170" y="631"/>
      <point x="182" y="601"/>
      <point x="264" y="545" type="curve"/>
      <point x="236" y="515" type="line"/>
      <point x="153" y="570"/>
      <point x="119" y="572"/>
    </contour>
    <contour>
      <point x="72" y="419" type="curve"/>
      <point x="44" y="483" type="line"/>
      <point x="105" y="509"/>
      <point x="141" y="505"/>
      <point x="244" y="546" type="curve"/>
      <point x="259" y="512" type="line"/>
      <point x="156" y="470"/>
      <point x="134" y="444"/>
    </contour>
    <contour>
      <point x="254" y="349" type="curve"/>
      <point x="178" y="349" type="line"/>
      <point x="190" y="412"/>
      <point x="212" y="439"/>
      <point x="231" y="531" type="curve"/>
      <point x="273" y="527" type="line"/>
      <point x="255" y="436"/>
      <point x="265" y="404"/>
    </contour>
    <contour>
      <point x="251" y="710" type="curve"/>
      <point x="326" y="710" type="line"/>
      <point x="315" y="644"/>
      <point x="293" y="621"/>
      <point x="273" y="527" type="curve"/>
      <point x="231" y="531" type="line"/>
      <point x="251" y="624"/>
      <point x="240" y="653"/>
    </contour>
    <contour>
      <point x="384" y="394" type="line"/>
      <point x="335" y="428"/>
      <point x="323" y="457"/>
      <point x="240" y="513" type="curve"/>
      <point x="268" y="543" type="line"/>
      <point x="350" y="488"/>
      <point x="386" y="487"/>
      <point x="434" y="452" type="curve"/>
    </contour>
    <contour>
      <point x="459" y="575" type="line"/>
      <point x="398" y="550"/>
      <point x="363" y="553"/>
      <point x="261" y="512" type="curve"/>
      <point x="246" y="545" type="line"/>
      <point x="348" y="588"/>
      <point x="371" y="615"/>
      <point x="433" y="638" type="curve"/>
    </contour>
  </outline>
</glyph>
<glyph name="W" format="2">
  <advance width="1177"/>
  <unicode hex="0057"/>
  <anchor x="611" y="741" name="top"/>
  <outline>
    <contour>
      <point x="81" y="710" type="line"/>
      <point x="71" y="662" type="line"/>
      <point x="76" y="662" type="line" smooth="yes"/>
      <point x="119" y="662"/>
      <point x="145" y="659"/>
      <point x="149" y="625" type="curve" smooth="yes"/>
      <point x="214" y="0" type="line"/>
      <point x="319" y="0" type="line"/>
      <point x="656" y="642" type="line"/>
      <point x="638" y="646" type="line"/>
      <point x="704" y="0" type="line"/>
      <point x="811" y="0" type="line"/>
      <point x="1138" y="619" type="line" smooth="yes"/>
      <point x="1157" y="653"/>
      <point x="1185" y="662"/>
      <point x="1226" y="662" type="curve" smooth="yes"/>
      <point x="1231" y="662" type="line"/>
      <point x="1241" y="710" type="line"/>
      <point x="976" y="710" type="line"/>
      <point x="966" y="662" type="line"/>
      <point x="984" y="662" type="line" smooth="yes"/>
      <point x="1027" y="662"/>
      <point x="1079" y="655"/>
      <point x="1077" y="644" type="curve"/>
      <point x="764" y="54" type="line"/>
      <point x="787" y="54" type="line"/>
      <point x="720" y="710" type="line"/>
      <point x="617" y="710" type="line"/>
      <point x="276" y="51" type="line"/>
      <point x="297" y="51" type="line"/>
      <point x="238" y="652" type="line"/>
      <point x="240" y="659"/>
      <point x="295" y="662"/>
      <point x="338" y="662" type="curve" smooth="yes"/>
      <point x="358" y="662" type="line"/>
      <point x="368" y="710" type="line"/>
    </contour>
  </outline>
</glyph>
<glyph name="a" format="2">
  <advance width="685"/>
  <unicode hex="0061"/>
  <anchor x="321" y="508" name="top"/>
  <anchor x="492" y="-10" name="right"/>
  <anchor x="352" y="0" name="bottom"/>
  <outline>
    <contour>
      <point x="533" y="-7" type="curve" smooth="yes"/>
      <point x="576" y="-7"/>
      <point x="612" y="7"/>
      <point x="635" y="22" type="curve"/>
      <point x="645" y="75" type="line"/>
      <point x="633" y="71"/>
      <point x="595" y="54"/>
      <point x="560" y="54" type="curve" smooth="yes"/>
      <point x="535" y="54"/>
      <point x="523" y="63"/>
      <point x="523" y="81" type="curve" smooth="yes"/>
      <point x="523" y="95"/>
      <point x="528" y="120"/>
      <point x="536" y="163" type="curve" smooth="yes"/>
      <point x="607" y="511" type="line"/>
      <point x="543" y="511" type="line"/>
      <point x="501" y="430" type="line"/>
      <point x="494" y="426" type="line"/>
      <point x="435" y="123" type="line"/>
      <point x="450" y="151" type="line"/>
      <point x="441" y="114"/>
      <point x="438" y="96"/>
      <point x="438" y="78" type="curve" smooth="yes"/>
      <point x="438" y="23"/>
      <point x="479" y="-7"/>
    </contour>
    <contour>
      <point x="236" y="-12" type="curve" smooth="yes"/>
      <point x="348" y="-12"/>
      <point x="415" y="65"/>
      <point x="496" y="199" type="curve"/>
      <point x="470" y="227" type="line"/>
      <point x="392" y="108"/>
      <point x="330" y="47"/>
      <point x="251" y="47" type="curve" smooth="yes"/>
      <point x="185" y="47"/>
      <point x="151" y="92"/>
      <point x="151" y="182" type="curve" smooth="yes"/>
      <point x="151" y="328"/>
      <point x="245" y="459"/>
      <point x="367" y="459" type="curve" smooth="yes"/>
      <point x="448" y="459"/>
      <point x="501" y="406"/>
      <point x="511" y="322" type="curve"/>
      <point x="555" y="374" type="line"/>
      <point x="533" y="457"/>
      <point x="475" y="518"/>
      <point x="369" y="518" type="curve" smooth="yes"/>
      <point x="189" y="518"/>
      <point x="50" y="365"/>
      <point x="50" y="189" type="curve" smooth="yes"/>
      <point x="50" y="56"/>
      <point x="123" y="-12"/>
    </contour>
  </outline>
</glyph>
<glyph name="section" format="2">
  <advance width="736"/>
  <unicode hex="00A7"/>
  <outline>
    <contour>
      <point x="293" y="-236" type="curve" smooth="yes"/>
      <point x="445" y="-236"/>
      <point x="547" y="-161"/>
      <point x="547" y="-57" type="curve" smooth="yes"/>
      <point x="547" y="38"/>
      <point x="449" y="98"/>
      <point x="345" y="156" type="curve" smooth="yes"/>
      <point x="248" y="211"/>
      <point x="156" y="254"/>
      <point x="156" y="314" type="curve" smooth="yes"/>
      <point x="156" y="371"/>
      <point x="211" y="401"/>
      <point x="329" y="398" type="curve"/>
      <point x="289" y="441" type="line"/>
      <point x="161" y="444"/>
      <point x="66" y="394"/>
      <point x="66" y="304" type="curve" smooth="yes"/>
      <point x="66" y="214"/>
      <point x="172" y="152"/>
      <point x="273" y="96" type="curve" smooth="yes"/>
      <point x="369" y="42"/>
      <point x="457" y="3"/>
      <point x="457" y="-69" type="curve" smooth="yes"/>
      <point x="457" y="-131"/>
      <point x="406" y="-177"/>
      <point x="296" y="-177" type="curve" smooth="yes"/>
      <point x="187" y="-177"/>
      <point x="125" y="-137"/>
      <point x="91" y="-90" type="curve"/>
      <point x="76" y="-118"/>
      <point x="84" y="-147"/>
      <point x="118" y="-159" type="curve"/>
      <point x="146" y="-33" type="line"/>
      <point x="47" y="-33" type="line"/>
      <point x="24" y="-135" type="line"/>
      <point x="64" y="-181"/>
      <point x="157" y="-236"/>
    </contour>
    <contour>
      <point x="446" y="53" type="line"/>
      <point x="590" y="50"/>
      <point x="672" y="107"/>
      <point x="672" y="202" type="curve" smooth="yes"/>
      <point x="672" y="293"/>
      <point x="564" y="347"/>
      <point x="457" y="406" type="curve" smooth="yes"/>
      <point x="365" y="457"/>
      <point x="281" y="498"/>
      <point x="281" y="563" type="curve" smooth="yes"/>
      <point x="281" y="618"/>
      <point x="331" y="662"/>
      <point x="439" y="662" type="curve" smooth="yes"/>
      <point x="536" y="662"/>
      <point x="590" y="624"/>
      <point x="610" y="575" type="curve"/>
      <point x="621" y="609"/>
      <point x="590" y="643"/>
      <point x="581" y="643" type="curve"/>
      <point x="561" y="545" type="line"/>
      <point x="655" y="545" type="line"/>
      <point x="673" y="638" type="line"/>
      <point x="636" y="677"/>
      <point x="568" y="720"/>
      <point x="441" y="720" type="curve" smooth="yes"/>
      <point x="287" y="720"/>
      <point x="191" y="652"/>
      <point x="191" y="554" type="curve" smooth="yes"/>
      <point x="191" y="460"/>
      <point x="289" y="400"/>
      <point x="385" y="346" type="curve" smooth="yes"/>
      <point x="486" y="291"/>
      <point x="583" y="243"/>
      <point x="583" y="185" type="curve" smooth="yes"/>
      <point x="583" y="128"/>
      <point x="530" y="103"/>
      <point x="409" y="102" type="curve"/>
    </contour>
  </outline>
</glyph>
<glyph name="logicalnot" format="2">
  <advance width="644"/>
  <unicode hex="00AC"/>
  <outline>
    <contour>
      <point x="487" y="350" type="line"/>
      <point x="449" y="155" type="line"/>
      <point x="517" y="155" type="line"/>
      <point x="560" y="372" type="line"/>
      <point x="114" y="372" type="line"/>
      <point x="102" y="310" type="line"/>
      <point x="526" y="310" type="line"/>
    </contour>
  </outline>
</glyph>
<glyph name="degree" format="2">
  <advance width="546"/>
  <unicode hex="00B0"/>
  <outline>
    <contour>
      <point x="290" y="436" type="curve" smooth="yes"/>
      <point x="217" y="436"/>
      <point x="167" y="482"/>
      <point x="167" y="548" type="curve" smooth="yes"/>
      <point x="167" y="615"/>
      <point x="217" y="661"/>
      <point x="290" y="661" type="curve" smooth="yes"/>
      <point x="363" y="661"/>
      <point x="413" y="615"/>
      <point x="413" y="548" type="curve" smooth="yes"/>
      <point x="413" y="482"/>
      <point x="363" y="436"/>
    </contour>
    <contour>
      <point x="290" y="368" type="curve" smooth="yes"/>
      <point x="407" y="368"/>
      <point x="499" y="441"/>
      <point x="499" y="548" type="curve" smooth="yes"/>
      <point x="499" y="656"/>
      <point x="407" y="729"/>
      <point x="290" y="729" type="curve" smooth="yes"/>
      <point x="173" y="729"/>
      <point x="81" y="656"/>
      <point x="81" y="548" type="curve" smooth="yes"/>
      <point x="81" y="441"/>
      <point x="173" y="368"/>
    </contour>
  </outline>
</glyph>
<glyph name="Oslash" format="2">
  <advance width="892"/>
  <unicode hex="00D8"/>
  <anchor x="445" y="731" name="top"/>
  <outline>
    <contour>
      <point x="-64" y="-15" type="line"/>
      <point x="27" y="-15" type="line"/>
      <point x="956" y="725" type="line"/>
      <point x="865" y="725" type="line"/>
    </contour>
    <contour>
      <point x="412" y="-10" type="curve" smooth="yes"/>
      <point x="671" y="-10"/>
      <point x="846" y="170"/>
      <point x="846" y="394" type="curve" smooth="yes"/>
      <point x="846" y="576"/>
      <point x="704" y="720"/>
      <point x="485" y="720" type="curve" smooth="yes"/>
      <point x="226" y="720"/>
      <point x="51" y="540"/>
      <point x="51" y="316" type="curve" smooth="yes"/>
      <point x="51" y="134"/>
      <point x="192" y="-10"/>
    </contour>
    <contour>
      <point x="414" y="51" type="curve"/>
      <point x="230" y="51"/>
      <point x="156" y="145"/>
      <point x="156" y="314" type="curve" smooth="yes"/>
      <point x="156" y="367"/>
      <point x="165" y="419"/>
      <point x="184" y="467" type="curve" smooth="yes"/>
      <point x="230" y="577"/>
      <point x="333" y="659"/>
      <point x="483" y="659" type="curve"/>
      <point x="667" y="659"/>
      <point x="741" y="565"/>
      <point x="741" y="396" type="curve" smooth="yes"/>
      <point x="741" y="343"/>
      <point x="732" y="291"/>
      <point x="713" y="243" type="curve" smooth="yes"/>
      <point x="666" y="133"/>
      <point x="564" y="51"/>
    </contour>
  </outline>
</glyph>
<glyph name="Thorn" format="2">
  <advance width="737"/>
  <unicode hex="00DE"/>
  <outline>
    <contour>
      <point x="239" y="507" type="line"/>
      <point x="400" y="507" type="line" smooth="yes"/>
      <point x="527" y="507"/>
      <point x="584" y="454"/>
      <point x="584" y="375" type="curve" smooth="yes"/>
      <point x="584" y="279"/>
      <point x="511" y="210"/>
      <point x="376" y="210" type="curve" smooth="yes"/>
      <point x="177" y="210" type="line"/>
      <point x="167" y="154" type="line"/>
      <point x="369" y="154" type="line" smooth="yes"/>
      <point x="552" y="154"/>
      <point x="688" y="237"/>
      <point x="688" y="375" type="curve" smooth="yes"/>
      <point x="688" y="484"/>
      <point x="590" y="565"/>
      <point x="405" y="565" type="curve" smooth="yes"/>
      <point x="266" y="565" type="line"/>
    </contour>
    <contour>
      <point x="115" y="84" type="line" smooth="yes"/>
      <point x="109" y="55"/>
      <point x="67" y="48"/>
      <point x="10" y="48" type="curve" smooth="yes"/>
      <point x="-2" y="48" type="line"/>
      <point x="-12" y="0" type="line"/>
      <point x="318" y="0" type="line"/>
      <point x="328" y="48" type="line"/>
      <point x="296" y="48" type="line" smooth="yes"/>
      <point x="257" y="48"/>
      <point x="208" y="51"/>
      <point x="209" y="58" type="curve" smooth="yes"/>
      <point x="332" y="652" type="line" smooth="yes"/>
      <point x="333" y="659"/>
      <point x="383" y="662"/>
      <point x="422" y="662" type="curve" smooth="yes"/>
      <point x="453" y="662" type="line"/>
      <point x="463" y="710" type="line"/>
      <point x="133" y="710" type="line"/>
      <point x="123" y="662" type="line"/>
      <point x="135" y="662" type="line" smooth="yes"/>
      <point x="192" y="662"/>
      <point x="232" y="655"/>
      <point x="226" y="626" type="curve" smooth="yes"/>
    </contour>
  </outline>
</glyph>
<glyph name="icircumflex" format="2">
  <advance width="354"/>
  <unicode hex="00EE"/>
  <outline>
    <contour>
      <point x="285" y="745" type="line"/>
      <point x="378" y="589" type="line"/>
      <point x="376" y="578" type="line"/>
      <point x="333" y="578" type="line"/>
      <point x="223" y="692" type="line"/>
      <point x="248" y="693" type="line"/>
      <point x="85" y="578" type="line"/>
      <point x="40" y="578" type="line"/>
      <point x="42" y="589" type="line"/>
      <point x="199" y="745" type="line"/>
    </contour>
    <component base="dotlessi"/>
  </outline>
</glyph>
<glyph name="thorn" format="2">
  <advance width="701"/>
  <unicode hex="00FE"/>
  <outline>
    <contour>
      <point x="-68" y="-223" type="line"/>
      <point x="248" y="-223" type="line"/>
      <point x="257" y="-177" type="line"/>
      <point x="223" y="-177" type="line" smooth="yes"/>
      <point x="191" y="-177"/>
      <point x="135" y="-173"/>
      <point x="136" y="-166" type="curve" smooth="yes"/>
      <point x="316" y="735" type="line"/>
      <point x="119" y="735" type="line"/>
      <point x="110" y="688" type="line"/>
      <point x="123" y="686" type="line" smooth="yes"/>
      <point x="181" y="677"/>
      <point x="209" y="671"/>
      <point x="203" y="642" type="curve" smooth="yes"/>
      <point x="46" y="-142" type="line" smooth="yes"/>
      <point x="40" y="-171"/>
      <point x="-2" y="-177"/>
      <point x="-58" y="-177" type="curve" smooth="yes"/>
      <point x="-60" y="-177" type="line"/>
    </contour>
    <contour>
      <point x="316" y="-12" type="curve" smooth="yes"/>
      <point x="511" y="-12"/>
      <point x="651" y="140"/>
      <point x="651" y="315" type="curve" smooth="yes"/>
      <point x="651" y="449"/>
      <point x="577" y="518"/>
      <point x="457" y="518" type="curve" smooth="yes"/>
      <point x="342" y="518"/>
      <point x="266" y="443"/>
      <point x="181" y="314" type="curve"/>
      <point x="207" y="285" type="line"/>
      <point x="290" y="400"/>
      <point x="360" y="459"/>
      <point x="442" y="459" type="curve" smooth="yes"/>
      <point x="516" y="459"/>
      <point x="550" y="413"/>
      <point x="550" y="322" type="curve" smooth="yes"/>
      <point x="550" y="177"/>
      <point x="454" y="47"/>
      <point x="319" y="47" type="curve" smooth="yes"/>
      <point x="235" y="47"/>
      <point x="173" y="87"/>
      <point x="155" y="157" type="curve"/>
      <point x="100" y="103" type="line"/>
      <point x="140" y="34"/>
      <point x="213" y="-12"/>
    </contour>
  </outline>
</glyph>
<glyph name="eogonek" format="2">
  <advance width="576"/>
  <unicode hex="0119"/>
  <outline>
    <contour>
      <point x="304" y="-236" type="curve" smooth="yes"/>
      <point x="356" y="-236"/>
      <point x="393" y="-216"/>
      <point x="419" y="-192" type="curve"/>
      <point x="393" y="-155" type="line"/>
      <point x="375" y="-169"/>
      <point x="353" y="-183"/>
      <point x="327" y="-183" type="curve" smooth="yes"/>
      <point x="300" y="-183"/>
      <point x="283" y="-171"/>
      <point x="283" y="-143" type="curve" smooth="yes"/>
      <point x="283" y="-67"/>
      <point x="389" y="-16"/>
      <point x="466" y="46" type="curve" smooth="yes"/>
      <point x="488" y="65"/>
      <point x="507" y="91"/>
      <point x="522" y="119" type="curve"/>
      <point x="472" y="154" type="line"/>
      <point x="439" y="100"/>
      <point x="388" y="46"/>
      <point x="302" y="46" type="curve" smooth="yes"/>
      <point x="206" y="46"/>
      <point x="148" y="106"/>
      <point x="148" y="206" type="curve" smooth="yes"/>
      <point x="148" y="353"/>
      <point x="236" y="460"/>
      <point x="350" y="460" type="curve" smooth="yes"/>
      <point x="413" y="460"/>
      <point x="444" y="431"/>
      <point x="444" y="387" type="curve" smooth="yes"/>
      <point x="444" y="299"/>
      <point x="369" y="252"/>
      <point x="127" y="249" type="curve"/>
      <point x="117" y="198" type="line"/>
      <point x="400" y="197"/>
      <point x="538" y="265"/>
      <point x="538" y="386" type="curve" smooth="yes"/>
      <point x="538" y="464"/>
      <point x="468" y="518"/>
      <point x="357" y="518" type="curve" smooth="yes"/>
      <point x="164" y="518"/>
      <point x="50" y="365"/>
      <point x="50" y="218" type="curve" smooth="yes"/>
      <point x="50" y="69"/>
      <point x="162" y="-12"/>
      <point x="299" y="-12" type="curve" smooth="yes"/>
      <point x="342" y="-12"/>
      <point x="382" y="-2"/>
      <point x="416" y="15" type="curve"/>
      <point x="423" y="45" type="line"/>
      <point x="269" y="-31"/>
      <point x="183" y="-77"/>
      <point x="183" y="-149" type="curve" smooth="yes"/>
      <point x="183" y="-205"/>
      <point x="235" y="-236"/>
    </contour>
  </outline>
</glyph>
<glyph name="eng" format="2">
  <advance width="703"/>
  <unicode hex="014B"/>
  <outline>
    <contour>
      <point x="417" y="-36" type="line" smooth="yes"/>
      <point x="396" y="-138"/>
      <point x="352" y="-173"/>
      <point x="279" y="-173" type="curve" smooth="yes"/>
      <point x="234" y="-173"/>
      <point x="198" y="-160"/>
      <point x="175" y="-154" type="curve"/>
      <point x="162" y="-217" type="line"/>
      <point x="187" y="-227"/>
      <point x="229" y="-236"/>
      <point x="279" y="-236" type="curve" smooth="yes"/>
      <point x="392" y="-236"/>
      <point x="481" y="-193"/>
      <point x="511" y="-44" type="curve" smooth="yes"/>
      <point x="592" y="324" type="line" smooth="yes"/>
      <point x="599" y="357"/>
      <point x="603" y="383"/>
      <point x="603" y="401" type="curve" smooth="yes"/>
      <point x="603" y="475"/>
      <point x="549" y="518"/>
      <point x="465" y="518" type="curve" smooth="yes"/>
      <point x="349" y="518"/>
      <point x="266" y="438"/>
      <point x="181" y="316" type="curve"/>
      <point x="206" y="290" type="line"/>
      <point x="288" y="401"/>
      <point x="361" y="453"/>
      <point x="436" y="453" type="curve" smooth="yes"/>
      <point x="487" y="453"/>
      <point x="506" y="430"/>
      <point x="506" y="391" type="curve" smooth="yes"/>
      <point x="506" y="375"/>
      <point x="503" y="354"/>
      <point x="496" y="321" type="curve" smooth="yes"/>
    </contour>
    <contour>
      <point x="170" y="0" type="line"/>
      <point x="242" y="365" type="line"/>
      <point x="236" y="377" type="line"/>
      <point x="263" y="508" type="line"/>
      <point x="73" y="508" type="line"/>
      <point x="64" y="461" type="line"/>
      <point x="80" y="459" type="line" smooth="yes"/>
      <point x="137" y="452"/>
      <point x="166" y="444"/>
      <point x="160" y="415" type="curve" smooth="yes"/>
      <point x="74" y="0" type="line"/>
    </contour>
  </outline>
</glyph>
<glyph name="Schwa" format="2">
  <advance width="816"/>
  <unicode hex="018F"/>
  <outline>
    <contour>
      <point x="357" y="-10" type="curve" smooth="yes"/>
      <point x="583" y="-10"/>
      <point x="771" y="167"/>
      <point x="771" y="412" type="curve" smooth="yes"/>
      <point x="771" y="613"/>
      <point x="626" y="720"/>
      <point x="435" y="720" type="curve" smooth="yes"/>
      <point x="283" y="720"/>
      <point x="172" y="657"/>
      <point x="103" y="569" type="curve"/>
      <point x="156" y="526" type="line"/>
      <point x="208" y="592"/>
      <point x="299" y="659"/>
      <point x="431" y="659" type="curve" smooth="yes"/>
      <point x="562" y="659"/>
      <point x="666" y="593"/>
      <point x="666" y="427" type="curve" smooth="yes"/>
      <point x="666" y="212"/>
      <point x="535" y="51"/>
      <point x="359" y="51" type="curve" smooth="yes"/>
      <point x="236" y="51"/>
      <point x="151" y="111"/>
      <point x="151" y="244" type="curve" smooth="yes"/>
      <point x="151" y="276"/>
      <point x="155" y="308"/>
      <point x="162" y="342" type="curve"/>
      <point x="127" y="317" type="line"/>
      <point x="706" y="317" type="line"/>
      <point x="716" y="378" type="line"/>
      <point x="64" y="378" type="line"/>
      <point x="55" y="339"/>
      <point x="51" y="305"/>
      <point x="51" y="265" type="curve" smooth="yes"/>
      <point x="51" y="97"/>
      <point x="156" y="-10"/>
    </contour>
  </outline>
</glyph>
<glyph name="Oogonek" format="2">
  <advance width="892"/>
  <unicode hex="01EA"/>
  <outline>
    <contour>
      <point x="414" y="51" type="curve" smooth="yes"/>
      <point x="241" y="51"/>
      <point x="156" y="164"/>
      <point x="156" y="314" type="curve" smooth="yes"/>
      <point x="156" y="385"/>
      <point x="172" y="453"/>
      <point x="205" y="510" type="curve" smooth="yes"/>
      <point x="258" y="598"/>
      <point x="352" y="659"/>
      <point x="483" y="659" type="curve" smooth="yes"/>
      <point x="656" y="659"/>
      <point x="741" y="546"/>
      <point x="741" y="396" type="curve" smooth="yes"/>
      <point x="741" y="325"/>
      <point x="725" y="257"/>
      <point x="692" y="200" type="curve" smooth="yes"/>
      <point x="639" y="112"/>
      <point x="546" y="51"/>
    </contour>
    <contour>
      <point x="429" y="-236" type="curve" smooth="yes"/>
      <point x="481" y="-236"/>
      <point x="518" y="-216"/>
      <point x="543" y="-192" type="curve"/>
      <point x="517" y="-155" type="line"/>
      <point x="500" y="-169"/>
      <point x="477" y="-183"/>
      <point x="451" y="-183" type="curve" smooth="yes"/>
      <point x="425" y="-183"/>
      <point x="408" y="-171"/>
      <point x="408" y="-143" type="curve" smooth="yes"/>
      <point x="408" y="-61"/>
      <point x="527" y="-13"/>
      <point x="649" y="55" type="curve" smooth="yes"/>
      <point x="770" y="123"/>
      <point x="846" y="251"/>
      <point x="846" y="394" type="curve" smooth="yes"/>
      <point x="846" y="576"/>
      <point x="704" y="720"/>
      <point x="485" y="720" type="curve" smooth="yes"/>
      <point x="226" y="720"/>
      <point x="51" y="540"/>
      <point x="51" y="316" type="curve" smooth="yes"/>
      <point x="51" y="134"/>
      <point x="192" y="-10"/>
      <point x="412" y="-10" type="curve" smooth="yes"/>
      <point x="460" y="-10"/>
      <point x="506" y="-3"/>
      <point x="547" y="9" type="curve"/>
      <point x="551" y="35" type="line"/>
      <point x="397" y="-31"/>
      <point x="308" y="-76"/>
      <point x="308" y="-149" type="curve" smooth="yes"/>
      <point x="308" y="-205"/>
      <point x="359" y="-236"/>
    </contour>
  </outline>
</glyph>
<glyph name="iinvertedbreve" format="2">
  <advance width="354"/>
  <unicode hex="020B"/>
  <outline>
    <contour>
      <point x="207" y="737" type="curve" smooth="yes"/>
      <point x="121" y="737"/>
      <point x="51" y="696"/>
      <point x="35" y="579" type="curve"/>
      <point x="96" y="579" type="line"/>
      <point x="112" y="641"/>
      <point x="141" y="667"/>
      <point x="201" y="667" type="curve" smooth="yes"/>
      <point x="271" y="667"/>
      <point x="288" y="632"/>
      <point x="284" y="579" type="curve"/>
      <point x="349" y="579" type="line"/>
      <point x="351" y="584"/>
      <point x="352" y="596"/>
      <point x="352" y="604" type="curve" smooth="yes"/>
      <point x="352" y="685"/>
      <point x="302" y="737"/>
    </contour>
    <component base="dotlessi"/>
  </outline>
</glyph>
<glyph name="circumflex" format="2">
  <advance width="575"/>
  <unicode hex="02C6"/>
  <anchor x="286" y="529" name="_top"/>
  <outline>
    <contour>
      <point x="389" y="745" type="line"/>
      <point x="482" y="589" type="line"/>
      <point x="480" y="578" type="line"/>
      <point x="436" y="578" type="line"/>
      <point x="327" y="692" type="line"/>
      <point x="351" y="693" type="line"/>
      <point x="189" y="578" type="line"/>
      <point x="144" y="578" type="line"/>
      <point x="146" y="589" type="line"/>
      <point x="303" y="745" type="line"/>
    </contour>
  </outline>
</glyph>
<glyph name="endash" format="2">
  <advance width="694"/>
  <unicode hex="2013"/>
  <outline>
    <contour>
      <point x="95" y="346" type="line"/>
      <point x="84" y="284" type="line"/>
      <point x="600" y="284" type="line"/>
      <point x="611" y="346" type="line"/>
    </contour>
  </outline>
</glyph>
<glyph name="fraction" format="2">
  <advance width="488"/>
  <unicode hex="2044"/>
  <outline>
    <contour>
      <point x="606" y="710" type="line"/>
      <point x="-179" y="0" type="line"/>
      <point x="-97" y="0" type="line"/>
      <point x="688" y="710" type="line"/>
    </contour>
  </outline>
</glyph>
<glyph name="cedi" format="2">
  <advance width="644"/>
  <unicode hex="20B5"/>
  <outline>
    <contour>
      <point x="416" y="643" type="curve"/>
      <point x="504" y="643"/>
      <point x="579" y="595"/>
      <point x="596" y="556" type="curve"/>
      <point x="616" y="582"/>
      <point x="590" y="610"/>
      <point x="550" y="618" type="curve"/>
      <point x="529" y="508" type="line"/>
      <point x="630" y="508" type="line"/>
      <point x="650" y="620" type="line"/>
      <point x="625" y="649"/>
      <point x="531" y="701"/>
      <point x="420" y="701" type="curve"/>
      <point x="171" y="701"/>
      <point x="33" y="504"/>
      <point x="33" y="305" type="curve" smooth="yes"/>
      <point x="33" y="104"/>
      <point x="172" y="9"/>
      <point x="325" y="9" type="curve" smooth="yes"/>
      <point x="457" y="9"/>
      <point x="556" y="88"/>
      <point x="610" y="218" type="curve"/>
      <point x="549" y="252" type="line"/>
      <point x="504" y="138"/>
      <point x="431" y="73"/>
      <point x="331" y="73" type="curve" smooth="yes"/>
      <point x="213" y="73"/>
      <point x="138" y="141"/>
      <point x="138" y="293" type="curve" smooth="yes"/>
      <point x="138" y="322"/>
      <point x="141" y="349"/>
      <point x="145" y="377" type="curve" smooth="yes"/>
      <point x="170" y="521"/>
      <point x="263" y="643"/>
    </contour>
    <contour>
      <point x="405" y="790" type="line"/>
      <point x="384" y="681" type="line"/>
      <point x="381" y="667" type="line"/>
      <point x="258" y="49" type="line"/>
      <point x="256" y="36" type="line"/>
      <point x="225" y="-120" type="line"/>
      <point x="291" y="-120" type="line"/>
      <point x="321" y="31" type="line"/>
      <point x="324" y="48" type="line"/>
      <point x="446" y="660" type="line"/>
      <point x="448" y="671" type="line"/>
      <point x="471" y="790" type="line"/>
    </contour>
  </outline>
</glyph>
<glyph name="minus" format="2">
  <advance width="644"/>
  <unicode hex="2212"/>
  <outline>
    <contour>
      <point x="565" y="375" type="line"/>
      <point x="95" y="375" type="line"/>
      <point x="82" y="307" type="line"/>
      <point x="552" y="307" type="line"/>
    </contour>
  </outline>
</glyph>
<glyph name="infinity" format="2">
  <advance width="893"/>
  <unicode hex="221E"/>
  <outline>
    <contour>
      <point x="408" y="336" type="curve" smooth="yes"/>
      <point x="377" y="440"/>
      <point x="333" y="481"/>
      <point x="261" y="481" type="curve" smooth="yes"/>
      <point x="168" y="481"/>
      <point x="123" y="416"/>
      <point x="123" y="347" type="curve" smooth="yes"/>
      <point x="123" y="279"/>
      <point x="172" y="227"/>
      <point x="251" y="227" type="curve" smooth="yes"/>
      <point x="330" y="227"/>
      <point x="387" y="277"/>
      <point x="424" y="343" type="curve"/>
      <point x="465" y="339" type="line"/>
      <point x="425" y="235"/>
      <point x="341" y="153"/>
      <point x="238" y="153" type="curve" smooth="yes"/>
      <point x="138" y="153"/>
      <point x="61" y="228"/>
      <point x="61" y="338" type="curve" smooth="yes"/>
      <point x="61" y="464"/>
      <point x="155" y="556"/>
      <point x="282" y="556" type="curve" smooth="yes"/>
      <point x="421" y="556"/>
      <point x="464" y="476"/>
      <point x="500" y="375" type="curve" smooth="yes"/>
      <point x="541" y="263"/>
      <point x="576" y="229"/>
      <point x="651" y="229" type="curve" smooth="yes"/>
      <point x="729" y="229"/>
      <point x="785" y="289"/>
      <point x="785" y="368" type="curve" smooth="yes"/>
      <point x="785" y="432"/>
      <point x="736" y="483"/>
      <point x="657" y="483" type="curve" smooth="yes"/>
      <point x="579" y="483"/>
      <point x="521" y="432"/>
      <point x="483" y="367" type="curve"/>
      <point x="442" y="371" type="line"/>
      <point x="495" y="486"/>
      <point x="570" y="556"/>
      <point x="669" y="556" type="curve" smooth="yes"/>
      <point x="782" y="556"/>
      <point x="847" y="476"/>
      <point x="847" y="379" type="curve" smooth="yes"/>
      <point x="847" y="244"/>
      <point x="753" y="153"/>
      <point x="627" y="153" type="curve" smooth="yes"/>
      <point x="500" y="153"/>
      <point x="441" y="220"/>
    </contour>
  </outline>
</glyph>
<glyph name="integral" format="2">
  <advance width="609"/>
  <unicode hex="222B"/>
  <outline>
    <contour>
      <point x="391" y="573" type="line" smooth="yes"/>
      <point x="406" y="654"/>
      <point x="434" y="682"/>
      <point x="499" y="682" type="curve" smooth="yes"/>
      <point x="549" y="682"/>
      <point x="572" y="667"/>
      <point x="589" y="640" type="curve"/>
      <point x="589" y="660"/>
      <point x="591" y="703"/>
      <point x="561" y="707" type="curve"/>
      <point x="538" y="604" type="line"/>
      <point x="627" y="604" type="line"/>
      <point x="648" y="704" type="line"/>
      <point x="631" y="716"/>
      <point x="582" y="737"/>
      <point x="502" y="737" type="curve" smooth="yes"/>
      <point x="389" y="737"/>
      <point x="317" y="685"/>
      <point x="298" y="578" type="curve"/>
      <point x="178" y="-72" type="line" smooth="yes"/>
      <point x="162" y="-153"/>
      <point x="133" y="-181"/>
      <point x="69" y="-181" type="curve" smooth="yes"/>
      <point x="19" y="-181"/>
      <point x="-4" y="-166"/>
      <point x="-21" y="-139" type="curve"/>
      <point x="-21" y="-159"/>
      <point x="-23" y="-202"/>
      <point x="7" y="-206" type="curve"/>
      <point x="29" y="-103" type="line"/>
      <point x="-60" y="-103" type="line"/>
      <point x="-80" y="-203" type="line"/>
      <point x="-64" y="-215"/>
      <point x="-15" y="-236"/>
      <point x="66" y="-236" type="curve" smooth="yes"/>
      <point x="179" y="-236"/>
      <point x="251" y="-184"/>
      <point x="272" y="-75" type="curve" smooth="yes"/>
    </contour>
  </outline>
</glyph>
<glyph name="uni25B5" format="2">
  <advance width="719"/>
  <unicode hex="25B5"/>
  <outline>
    <contour>
      <point x="667" y="91" type="line"/>
      <point x="52" y="91" type="line"/>
      <point x="359" y="464" type="line"/>
    </contour>
    <contour>
      <point x="569" y="141" type="line"/>
      <point x="561" y="125" type="line"/>
      <point x="353" y="380" type="line"/>
      <point x="366" y="380" type="line"/>
      <point x="158" y="125" type="line"/>
      <point x="150" y="141" type="line"/>
    </contour>
  </outline>
</glyph>
<glyph name="uni27F7" format="2">
  <advance width="1494"/>
  <unicode hex="27F7"/>
  <outline>
    <contour>
      <point x="1168" y="324" type="line"/>
      <point x="1066" y="192" type="line"/>
      <point x="1077" y="179" type="line"/>
      <point x="1431" y="346" type="line"/>
      <point x="1431" y="360" type="line"/>
      <point x="1077" y="527" type="line"/>
      <point x="1066" y="514" type="line"/>
      <point x="1168" y="382" type="line"/>
      <point x="327" y="382" type="line"/>
      <point x="430" y="514" type="line"/>
      <point x="418" y="527" type="line"/>
      <point x="64" y="360" type="line"/>
      <point x="64" y="346" type="line"/>
      <point x="418" y="179" type="line"/>
      <point x="430" y="192" type="line"/>
      <point x="327" y="324" type="line"/>
    </contour>
  </outline>
</glyph>
<glyph name="one.den" format="2">
  <advance width="373"/>
  <unicode hex="E403"/>
  <outline>
    <contour>
      <point x="169" y="55" type="curve" smooth="yes"/>
      <point x="228" y="342" type="line"/>
      <point x="168" y="342" type="line"/>
      <point x="139" y="314"/>
      <point x="96" y="300"/>
      <point x="29" y="299" type="curve"/>
      <point x="20" y="253" type="line"/>
      <point x="79" y="252"/>
      <point x="132" y="268"/>
      <point x="152" y="302" type="curve"/>
      <point x="153" y="309"/>
      <point x="151" y="306"/>
      <point x="140" y="296" type="curve"/>
      <point x="90" y="55" type="line" smooth="yes"/>
      <point x="86" y="37"/>
      <point x="57" y="33"/>
      <point x="17" y="33" type="curve" smooth="yes"/>
      <point x="-14" y="33" type="line"/>
      <point x="-19" y="0" type="line"/>
      <point x="254" y="0" type="line"/>
      <point x="260" y="33" type="line"/>
      <point x="237" y="33" type="line" smooth="yes"/>
      <point x="193" y="33"/>
      <point x="166" y="37"/>
    </contour>
  </outline>
</glyph>
<glyph name="five.den" format="2">
  <advance width="373"/>
  <unicode hex="E407"/>
  <outline>
    <contour>
      <point x="125" y="-14" type="curve" smooth="yes"/>
      <point x="37" y="-14"/>
      <point x="-13" y="20"/>
      <point x="-36" y="78" type="curve"/>
      <point x="9" y="100" type="line"/>
      <point x="25" y="62"/>
      <point x="55" y="27"/>
      <point x="120" y="27" type="curve" smooth="yes"/>
      <point x="180" y="27"/>
      <point x="208" y="69"/>
      <point x="208" y="115" type="curve" smooth="yes"/>
      <point x="208" y="154"/>
      <point x="182" y="183"/>
      <point x="135" y="183" type="curve" smooth="yes"/>
      <point x="102" y="183"/>
      <point x="74" y="169"/>
      <point x="56" y="145" type="curve"/>
      <point x="14" y="145" type="line"/>
      <point x="54" y="342" type="line"/>
      <point x="297" y="342" type="line"/>
      <point x="278" y="284" type="line"/>
      <point x="76" y="284" type="line"/>
      <point x="99" y="331" type="line"/>
      <point x="67" y="171" type="line"/>
      <point x="61" y="167"/>
      <point x="50" y="169"/>
      <point x="51" y="172" type="curve"/>
      <point x="74" y="201"/>
      <point x="110" y="222"/>
      <point x="159" y="222" type="curve" smooth="yes"/>
      <point x="237" y="222"/>
      <point x="290" y="177"/>
      <point x="290" y="116" type="curve" smooth="yes"/>
      <point x="290" y="40"/>
      <point x="223" y="-14"/>
    </contour>
  </outline>
</glyph>
<glyph name="f_f" format="2">
  <advance width="780"/>
  <unicode hex="FB00"/>
  <outline>
    <contour>
      <point x="60" y="508" type="line"/>
      <point x="50" y="453" type="line"/>
      <point x="448" y="453" type="line"/>
      <point x="459" y="508" type="line"/>
    </contour>
    <contour>
      <point x="399" y="681" type="curve" smooth="yes"/>
      <point x="434" y="681"/>
      <point x="465" y="672"/>
      <point x="486" y="665" type="curve"/>
      <point x="497" y="724" type="line"/>
      <point x="483" y="730"/>
      <point x="445" y="738"/>
      <point x="399" y="738" type="curve" smooth="yes"/>
      <point x="297" y="738"/>
      <point x="199" y="690"/>
      <point x="177" y="543" type="curve" smooth="yes"/>
      <point x="63" y="-223" type="line"/>
      <point x="139" y="-223" type="line"/>
      <point x="279" y="550" type="line" smooth="yes"/>
      <point x="298" y="653"/>
      <point x="338" y="681"/>
    </contour>
    <contour>
      <point x="414" y="508" type="line"/>
      <point x="404" y="453" type="line"/>
      <point x="792" y="453" type="line"/>
      <point x="803" y="508" type="line"/>
    </contour>
    <contour>
      <point x="767" y="695" type="curve" smooth="yes"/>
      <point x="807" y="695"/>
      <point x="842" y="684"/>
      <point x="870" y="671" type="curve"/>
      <point x="881" y="733" type="line"/>
      <point x="859" y="744"/>
      <point x="819" y="752"/>
      <point x="768" y="752" type="curve" smooth="yes"/>
      <point x="657" y="752"/>
      <point x="556" y="700"/>
      <point x="534" y="555" type="curve" smooth="yes"/>
      <point x="422" y="-193" type="line"/>
      <point x="498" y="-193" type="line"/>
      <point x="637" y="563" type="line" smooth="yes"/>
      <point x="654" y="662"/>
      <point x="698" y="695"/>
    </contour>
  </outline>
</glyph>
<glyph name="Euro.proportional" format="2">
  <advance width="779"/>
  <outline>
    <contour>
      <point x="540" y="720" type="curve" smooth="yes"/>
      <point x="302" y="720"/>
      <point x="138" y="548"/>
      <point x="138" y="314" type="curve" smooth="yes"/>
      <point x="138" y="124"/>
      <point x="249" y="-10"/>
      <point x="438" y="-10" type="curve" smooth="yes"/>
      <point x="590" y="-10"/>
      <point x="680" y="77"/>
      <point x="732" y="216" type="curve"/>
      <point x="671" y="244" type="line"/>
      <point x="628" y="130"/>
      <point x="562" y="53"/>
      <point x="444" y="53" type="curve" smooth="yes"/>
      <point x="317" y="53"/>
      <point x="245" y="149"/>
      <point x="245" y="303" type="curve" smooth="yes"/>
      <point x="245" y="349"/>
      <point x="251" y="392"/>
      <point x="262" y="432" type="curve" smooth="yes"/>
      <point x="301" y="570"/>
      <point x="404" y="657"/>
      <point x="537" y="657" type="curve" smooth="yes"/>
      <point x="632" y="657"/>
      <point x="692" y="604"/>
      <point x="710" y="565" type="curve"/>
      <point x="731" y="590"/>
      <point x="710" y="617"/>
      <point x="672" y="626" type="curve"/>
      <point x="650" y="513" type="line"/>
      <point x="752" y="513" type="line"/>
      <point x="772" y="634" type="line"/>
      <point x="752" y="663"/>
      <point x="675" y="720"/>
    </contour>
    <contour>
      <point x="67" y="453" type="line"/>
      <point x="56" y="396" type="line"/>
      <point x="520" y="396" type="line"/>
      <point x="531" y="453" type="line"/>
    </contour>
    <contour>
      <point x="35" y="293" type="line"/>
      <point x="24" y="236" type="line"/>
      <point x="432" y="236" type="line"/>
      <point x="443" y="293" type="line"/>
    </contour>
  </outline>
</glyph>
<glyph name="F.alt" format="2">
  <advance width="706"/>
  <outline>
    <contour>
      <point x="332" y="650" type="line"/>
      <point x="483" y="650" type="line" smooth="yes"/>
      <point x="582" y="650"/>
      <point x="621" y="643"/>
      <point x="618" y="607" type="curve" smooth="yes"/>
      <point x="610" y="517" type="line"/>
      <point x="671" y="517" type="line"/>
      <point x="710" y="710" type="line"/>
      <point x="133" y="710" type="line"/>
      <point x="123" y="662" type="line"/>
      <point x="135" y="662" type="line" smooth="yes"/>
      <point x="192" y="662"/>
      <point x="232" y="655"/>
      <point x="226" y="626" type="curve" smooth="yes"/>
      <point x="115" y="85" type="line" smooth="yes"/>
      <point x="109" y="54"/>
      <point x="64" y="48"/>
      <point x="10" y="48" type="curve" smooth="yes"/>
      <point x="-2" y="48" type="line"/>
      <point x="-12" y="0" type="line"/>
      <point x="327" y="0" type="line"/>
      <point x="337" y="48" type="line"/>
      <point x="317" y="48" type="line" smooth="yes"/>
      <point x="268" y="48"/>
      <point x="208" y="49"/>
      <point x="215" y="84" type="curve" smooth="yes"/>
    </contour>
    <contour>
      <point x="263" y="382" type="line"/>
      <point x="252" y="325" type="line"/>
      <point x="465" y="325" type="line"/>
      <point x="499" y="325"/>
      <point x="501" y="295"/>
      <point x="494" y="260" type="curve" smooth="yes"/>
      <point x="493" y="254" type="line"/>
      <point x="542" y="254" type="line"/>
      <point x="582" y="453" type="line"/>
      <point x="533" y="453" type="line"/>
      <point x="532" y="447" type="line" smooth="yes"/>
      <point x="525" y="412"/>
      <point x="504" y="382"/>
      <point x="471" y="382" type="curve"/>
    </contour>
  </outline>
</glyph>
<glyph name="a.italic" format="2">
  <advance width="623"/>
  <outline>
    <contour>
      <point x="443" y="308" type="line"/>
      <point x="191" y="283"/>
      <point x="61" y="234"/>
      <point x="61" y="124" type="curve" smooth="yes"/>
      <point x="61" y="41"/>
      <point x="143" y="-10"/>
      <point x="242" y="-10" type="curve" smooth="yes"/>
      <point x="337" y="-10"/>
      <point x="405" y="38"/>
      <point x="441" y="112" type="curve"/>
      <point x="441" y="183" type="line"/>
      <point x="403" y="98"/>
      <point x="350" y="45"/>
      <point x="269" y="45" type="curve" smooth="yes"/>
      <point x="208" y="45"/>
      <point x="168" y="76"/>
      <point x="168" y="125" type="curve" smooth="yes"/>
      <point x="168" y="203"/>
      <point x="251" y="240"/>
      <point x="443" y="258" type="curve"/>
    </contour>
    <contour>
      <point x="423" y="0" type="line"/>
      <point x="609" y="0" type="line"/>
      <point x="609" y="45" type="line"/>
      <point x="609" y="45" type="line"/>
      <point x="553" y="45"/>
      <point x="513" y="52"/>
      <point x="513" y="81" type="curve" smooth="yes"/>
      <point x="513" y="359" type="line" smooth="yes"/>
      <point x="513" y="478"/>
      <point x="411" y="518"/>
      <point x="305" y="518" type="curve" smooth="yes"/>
      <point x="205" y="518"/>
      <point x="130" y="482"/>
      <point x="97" y="458" type="curve"/>
      <point x="97" y="355" type="line"/>
      <point x="197" y="355" type="line"/>
      <point x="197" y="458" type="line"/>
      <point x="167" y="446"/>
      <point x="142" y="427"/>
      <point x="147" y="394" type="curve"/>
      <point x="176" y="430"/>
      <point x="222" y="461"/>
      <point x="298" y="461" type="curve" smooth="yes"/>
      <point x="371" y="461"/>
      <point x="412" y="434"/>
      <point x="412" y="350" type="curve" smooth="yes"/>
      <point x="412" y="110" type="line"/>
      <point x="423" y="107" type="line"/>
    </contour>
  </outline>
</glyph>
<glyph name="blackuppointingtriangle" format="2">
  <advance width="742"/>
  <outline>
    <contour>
      <point x="63" y="91" type="line"/>
      <point x="679" y="91" type="line"/>
      <point x="371" y="464" type="line"/>
    </contour>
  </outline>
</glyph>
<glyph name="breve_grave.uc" format="2">
  <advance width="587"/>
  <anchor x="284" y="744" name="_top"/>
  <outline>
    <contour>
      <point x="334" y="1011" type="curve" smooth="yes"/>
      <point x="394" y="939" type="line"/>
      <point x="394" y="939"/>
      <point x="394" y="919"/>
      <point x="394" y="920" type="curve"/>
      <point x="394" y="921"/>
      <point x="361" y="922"/>
      <point x="361" y="922" type="curve"/>
      <point x="361" y="922"/>
      <point x="269" y="961"/>
      <point x="269" y="959" type="curve" smooth="yes"/>
      <point x="229" y="975"/>
      <point x="206" y="989"/>
      <point x="206" y="1017" type="curve" smooth="yes"/>
      <point x="206" y="1040"/>
      <point x="224" y="1061"/>
      <point x="259" y="1061" type="curve" smooth="yes"/>
      <point x="291" y="1061"/>
      <point x="307" y="1044"/>
    </contour>
    <component base="breve.uc" xOffset="1"/>
  </outline>
</glyph>
<glyph name="breve_hook" format="2">
  <advance width="587"/>
  <anchor x="294" y="525" name="_top"/>
  <outline>
    <contour>
      <point x="231" y="830" type="line"/>
      <point x="242" y="872"/>
      <point x="277" y="901"/>
      <point x="356" y="901" type="curve" smooth="yes"/>
      <point x="433" y="901"/>
      <point x="471" y="875"/>
      <point x="471" y="834" type="curve" smooth="yes"/>
      <point x="471" y="778"/>
      <point x="405" y="754"/>
      <point x="325" y="751" type="curve"/>
      <point x="360" y="779" type="line"/>
      <point x="349" y="730" type="line"/>
      <point x="295" y="730" type="line"/>
      <point x="305" y="785" type="line"/>
      <point x="366" y="788"/>
      <point x="396" y="801"/>
      <point x="396" y="831" type="curve" smooth="yes"/>
      <point x="396" y="849"/>
      <point x="384" y="860"/>
      <point x="352" y="860" type="curve" smooth="yes"/>
      <point x="317" y="860"/>
      <point x="304" y="847"/>
      <point x="297" y="830" type="curve"/>
    </contour>
    <contour>
      <point x="180" y="736" type="curve"/>
      <point x="245" y="736" type="line"/>
      <point x="242" y="682"/>
      <point x="260" y="648"/>
      <point x="329" y="648" type="curve" smooth="yes"/>
      <point x="390" y="648"/>
      <point x="417" y="673"/>
      <point x="434" y="736" type="curve"/>
      <point x="496" y="736" type="line"/>
      <point x="479" y="619"/>
      <point x="409" y="578"/>
      <point x="323" y="578" type="curve" smooth="yes"/>
      <point x="228" y="578"/>
      <point x="177" y="630"/>
      <point x="179" y="711" type="curve" smooth="yes"/>
      <point x="179" y="719"/>
      <point x="179" y="731"/>
    </contour>
  </outline>
</glyph>
<glyph name="cedi.proportional" format="2">
  <advance width="793"/>
  <outline>
    <contour>
      <point x="401" y="9" type="curve" smooth="yes"/>
      <point x="546" y="9"/>
      <point x="663" y="90"/>
      <point x="716" y="216" type="curve"/>
      <point x="656" y="252" type="line"/>
      <point x="609" y="141"/>
      <point x="523" y="72"/>
      <point x="408" y="72" type="curve" smooth="yes"/>
      <point x="276" y="72"/>
      <point x="168" y="154"/>
      <point x="168" y="309" type="curve" smooth="yes"/>
      <point x="168" y="500"/>
      <point x="289" y="642"/>
      <point x="478" y="642" type="curve" smooth="yes"/>
      <point x="612" y="642"/>
      <point x="690" y="581"/>
      <point x="709" y="542" type="curve"/>
      <point x="730" y="567"/>
      <point x="706" y="609"/>
      <point x="667" y="618" type="curve"/>
      <point x="643" y="490" type="line"/>
      <point x="745" y="490" type="line"/>
      <point x="764" y="606" type="line"/>
      <point x="738" y="634"/>
      <point x="640" y="701"/>
      <point x="483" y="701" type="curve" smooth="yes"/>
      <point x="236" y="701"/>
      <point x="63" y="544"/>
      <point x="63" y="322" type="curve" smooth="yes"/>
      <point x="63" y="129"/>
      <point x="222" y="9"/>
    </contour>
    <contour>
      <point x="483" y="790" type="line"/>
      <point x="461" y="680" type="line"/>
      <point x="459" y="668" type="line"/>
      <point x="335" y="61" type="line"/>
      <point x="332" y="45" type="line"/>
      <point x="299" y="-120" type="line"/>
      <point x="365" y="-120" type="line"/>
      <point x="396" y="35" type="line"/>
      <point x="399" y="50" type="line"/>
      <point x="525" y="667" type="line"/>
      <point x="526" y="676" type="line"/>
      <point x="549" y="790" type="line"/>
    </contour>
  </outline>
</glyph>
<glyph name="circumflex_grave.uc" format="2">
  <advance width="587"/>
  <anchor x="292" y="696" name="_top"/>
  <outline>
    <contour>
      <point x="557" y="958" type="line" smooth="yes"/>
      <point x="540" y="985"/>
      <point x="524" y="1000"/>
      <point x="496" y="1000" type="curve" smooth="yes"/>
      <point x="465" y="1000"/>
      <point x="447" y="981"/>
      <point x="447" y="956" type="curve" smooth="yes"/>
      <point x="447" y="928"/>
      <point x="469" y="913"/>
      <point x="503" y="893" type="curve" smooth="yes"/>
      <point x="578" y="852" type="line"/>
      <point x="610" y="852" type="line"/>
      <point x="610" y="873" type="line"/>
    </contour>
    <component base="circumflex.uc" xOffset="1"/>
  </outline>
</glyph>
<glyph name="commaaccent" format="2">
  <advance width="575"/>
  <anchor x="274" y="33" name="_bottom"/>
  <outline>
    <contour>
      <point x="216" y="-305" type="line"/>
      <point x="296" y="-256"/>
      <point x="336" y="-200"/>
      <point x="336" y="-150" type="curve" smooth="yes"/>
      <point x="336" y="-112"/>
      <point x="309" y="-89"/>
      <point x="268" y="-89" type="curve" smooth="yes"/>
      <point x="229" y="-89"/>
      <point x="204" y="-112"/>
      <point x="204" y="-144" type="curve" smooth="yes"/>
      <point x="204" y="-174"/>
      <point x="231" y="-199"/>
      <point x="281" y="-199" type="curve" smooth="yes"/>
      <point x="292" y="-199"/>
      <point x="305" y="-191"/>
      <point x="305" y="-183" type="curve"/>
      <point x="305" y="-179"/>
      <point x="279" y="-180"/>
      <point x="278" y="-181" type="curve"/>
      <point x="271" y="-213"/>
      <point x="218" y="-245"/>
      <point x="159" y="-270" type="curve"/>
    </contour>
  </outline>
</glyph>
<glyph name="d.italic" format="2">
  <advance width="737"/>
  <outline>
    <contour>
      <point x="618" y="81" type="curve"/>
      <point x="618" y="735" type="line"/>
      <point x="415" y="735" type="line"/>
      <point x="415" y="689" type="line"/>
      <point x="428" y="687" type="line" smooth="yes"/>
      <point x="488" y="678"/>
      <point x="515" y="671"/>
      <point x="515" y="642" type="curve" smooth="yes"/>
      <point x="515" y="115" type="line"/>
      <point x="525" y="112" type="line"/>
      <point x="525" y="0" type="line"/>
      <point x="714" y="0" type="line"/>
      <point x="714" y="45" type="line"/>
      <point x="713" y="45" type="line"/>
      <point x="658" y="45"/>
      <point x="618" y="52"/>
    </contour>
    <contour>
      <point x="329" y="518" type="curve" smooth="yes"/>
      <point x="165" y="518"/>
      <point x="53" y="409"/>
      <point x="53" y="250" type="curve" smooth="yes"/>
      <point x="53" y="94"/>
      <point x="161" y="-10"/>
      <point x="322" y="-10" type="curve" smooth="yes"/>
      <point x="417" y="-10"/>
      <point x="475" y="28"/>
      <point x="535" y="107" type="curve"/>
      <point x="535" y="191" type="line"/>
      <point x="484" y="97"/>
      <point x="420" y="47"/>
      <point x="329" y="47" type="curve" smooth="yes"/>
      <point x="221" y="47"/>
      <point x="161" y="126"/>
      <point x="161" y="250" type="curve" smooth="yes"/>
      <point x="161" y="378"/>
      <point x="221" y="461"/>
      <point x="333" y="461" type="curve" smooth="yes"/>
      <point x="420" y="461"/>
      <point x="486" y="418"/>
      <point x="535" y="322" type="curve"/>
      <point x="535" y="412" type="line"/>
      <point x="479" y="486"/>
      <point x="421" y="518"/>
    </contour>
  </outline>
</glyph>
<glyph name="dollar.proportional" format="2">
  <advance width="673"/>
  <outline>
    <contour>
      <point x="325" y="12" type="curve" smooth="yes"/>
      <point x="488" y="12"/>
      <point x="602" y="90"/>
      <point x="602" y="210" type="curve" smooth="yes"/>
      <point x="602" y="319"/>
      <point x="490" y="364"/>
      <point x="389" y="404" type="curve" smooth="yes"/>
      <point x="297" y="438"/>
      <point x="213" y="462"/>
      <point x="213" y="536" type="curve" smooth="yes"/>
      <point x="213" y="602"/>
      <point x="278" y="641"/>
      <point x="398" y="641" type="curve" smooth="yes"/>
      <point x="497" y="641"/>
      <point x="558" y="608"/>
      <point x="580" y="561" type="curve"/>
      <point x="596" y="578"/>
      <point x="575" y="612"/>
      <point x="548" y="616" type="curve"/>
      <point x="529" y="522" type="line"/>
      <point x="627" y="522" type="line"/>
      <point x="646" y="619" type="line"/>
      <point x="615" y="655"/>
      <point x="523" y="698"/>
      <point x="401" y="698" type="curve" smooth="yes"/>
      <point x="230" y="698"/>
      <point x="130" y="630"/>
      <point x="130" y="525" type="curve" smooth="yes"/>
      <point x="130" y="419"/>
      <point x="229" y="379"/>
      <point x="322" y="341" type="curve" smooth="yes"/>
      <point x="417" y="303"/>
      <point x="513" y="279"/>
      <point x="513" y="197" type="curve" smooth="yes"/>
      <point x="513" y="117"/>
      <point x="445" y="70"/>
      <point x="328" y="70" type="curve" smooth="yes"/>
      <point x="201" y="70"/>
      <point x="101" y="115"/>
      <point x="72" y="191" type="curve"/>
      <point x="55" y="160"/>
      <point x="74" y="115"/>
      <point x="105" y="111" type="curve"/>
      <point x="126" y="218" type="line"/>
      <point x="23" y="218" type="line"/>
      <point x="6" y="130" type="line"/>
      <point x="53" y="68"/>
      <point x="174" y="12"/>
    </contour>
    <contour>
      <point x="404" y="790" type="line"/>
      <point x="382" y="675" type="line"/>
      <point x="380" y="665" type="line"/>
      <point x="253" y="48" type="line"/>
      <point x="252" y="40" type="line"/>
      <point x="220" y="-120" type="line"/>
      <point x="286" y="-120" type="line"/>
      <point x="316" y="32" type="line"/>
      <point x="318" y="41" type="line"/>
      <point x="445" y="664" type="line"/>
      <point x="447" y="673" type="line"/>
      <point x="470" y="790" type="line"/>
    </contour>
  </outline>
</glyph>
<glyph name="dong.proportional" format="2">
  <advance width="711"/>
  <outline>
    <contour>
      <point x="245" y="-12" type="curve" smooth="yes"/>
      <point x="357" y="-12"/>
      <point x="429" y="64"/>
      <point x="515" y="192" type="curve"/>
      <point x="488" y="221" type="line"/>
      <point x="406" y="107"/>
      <point x="339" y="47"/>
      <point x="259" y="47" type="curve" smooth="yes"/>
      <point x="189" y="47"/>
      <point x="157" y="93"/>
      <point x="157" y="184" type="curve" smooth="yes"/>
      <point x="157" y="329"/>
      <point x="250" y="459"/>
      <point x="382" y="459" type="curve" smooth="yes"/>
      <point x="463" y="459"/>
      <point x="522" y="419"/>
      <point x="540" y="349" type="curve"/>
      <point x="595" y="403" type="line"/>
      <point x="555" y="472"/>
      <point x="486" y="518"/>
      <point x="385" y="518" type="curve" smooth="yes"/>
      <point x="194" y="518"/>
      <point x="56" y="366"/>
      <point x="56" y="191" type="curve" smooth="yes"/>
      <point x="56" y="57"/>
      <point x="128" y="-12"/>
    </contour>
    <contour>
      <point x="551" y="-7" type="curve" smooth="yes"/>
      <point x="595" y="-7"/>
      <point x="631" y="7"/>
      <point x="653" y="22" type="curve"/>
      <point x="663" y="75" type="line"/>
      <point x="651" y="71"/>
      <point x="613" y="54"/>
      <point x="578" y="54" type="curve" smooth="yes"/>
      <point x="553" y="54"/>
      <point x="541" y="62"/>
      <point x="541" y="81" type="curve" smooth="yes"/>
      <point x="541" y="96"/>
      <point x="546" y="120"/>
      <point x="553" y="163" type="curve"/>
      <point x="668" y="735" type="line"/>
      <point x="573" y="735" type="line"/>
      <point x="453" y="127" type="line"/>
      <point x="461" y="141" type="line"/>
      <point x="453" y="113"/>
      <point x="450" y="96"/>
      <point x="450" y="78" type="curve" smooth="yes"/>
      <point x="450" y="23"/>
      <point x="490" y="-7"/>
    </contour>
    <contour>
      <point x="97" y="-127" type="line"/>
      <point x="87" y="-188" type="line"/>
      <point x="584" y="-188" type="line"/>
      <point x="595" y="-127" type="line"/>
    </contour>
    <contour>
      <point x="326" y="634" type="line"/>
      <point x="315" y="580" type="line"/>
      <point x="755" y="580" type="line"/>
      <point x="766" y="634" type="line"/>
    </contour>
  </outline>
</glyph>
<glyph name="eight.old" format="2">
  <advance width="644"/>
  <outline>
    <contour>
      <point x="316" y="52" type="curve" smooth="yes"/>
      <point x="208" y="52"/>
      <point x="139" y="105"/>
      <point x="139" y="194" type="curve" smooth="yes"/>
      <point x="139" y="205"/>
      <point x="140" y="215"/>
      <point x="142" y="225" type="curve" smooth="yes"/>
      <point x="157" y="298"/>
      <point x="227" y="346"/>
      <point x="326" y="346" type="curve"/>
      <point x="436" y="346"/>
      <point x="496" y="291"/>
      <point x="496" y="213" type="curve" smooth="yes"/>
      <point x="496" y="198"/>
      <point x="494" y="182"/>
      <point x="491" y="168" type="curve" smooth="yes"/>
      <point x="472" y="100"/>
      <point x="412" y="52"/>
    </contour>
    <contour>
      <point x="387" y="658" type="curve" smooth="yes"/>
      <point x="469" y="658"/>
      <point x="521" y="614"/>
      <point x="521" y="542" type="curve" smooth="yes"/>
      <point x="521" y="529"/>
      <point x="520" y="518"/>
      <point x="518" y="507" type="curve" smooth="yes"/>
      <point x="503" y="448"/>
      <point x="450" y="406"/>
      <point x="376" y="406" type="curve" smooth="yes"/>
      <point x="292" y="406"/>
      <point x="239" y="455"/>
      <point x="239" y="530" type="curve" smooth="yes"/>
      <point x="239" y="543"/>
      <point x="240" y="555"/>
      <point x="243" y="567" type="curve" smooth="yes"/>
      <point x="258" y="622"/>
      <point x="310" y="658"/>
    </contour>
    <contour>
      <point x="414" y="368" type="line"/>
      <point x="540" y="381"/>
      <point x="618" y="451"/>
      <point x="618" y="545" type="curve" smooth="yes"/>
      <point x="618" y="648"/>
      <point x="521" y="720"/>
      <point x="389" y="720" type="curve" smooth="yes"/>
      <point x="243" y="720"/>
      <point x="142" y="643"/>
      <point x="142" y="542" type="curve" smooth="yes"/>
      <point x="142" y="461"/>
      <point x="203" y="398"/>
      <point x="293" y="375" type="curve"/>
      <point x="261" y="393" type="line"/>
      <point x="259" y="379" type="line"/>
      <point x="296" y="388" type="line"/>
      <point x="140" y="381"/>
      <point x="34" y="310"/>
      <point x="34" y="194" type="curve" smooth="yes"/>
      <point x="34" y="72"/>
      <point x="158" y="-10"/>
      <point x="312" y="-10" type="curve" smooth="yes"/>
      <point x="490" y="-10"/>
      <point x="602" y="84"/>
      <point x="602" y="196" type="curve" smooth="yes"/>
      <point x="602" y="292"/>
      <point x="523" y="354"/>
      <point x="416" y="378" type="curve"/>
      <point x="439" y="364" type="line"/>
      <point x="445" y="381" type="line"/>
    </contour>
  </outline>
</glyph>
<glyph name="f.alt" format="2">
  <advance width="427"/>
  <outline>
    <contour>
      <point x="60" y="508" type="line"/>
      <point x="50" y="453" type="line"/>
      <point x="438" y="453" type="line"/>
      <point x="448" y="508" type="line"/>
    </contour>
    <contour>
      <point x="421" y="752" type="curve" smooth="yes"/>
      <point x="297" y="752"/>
      <point x="201" y="700"/>
      <point x="180" y="555" type="curve" smooth="yes"/>
      <point x="63" y="-223" type="line"/>
      <point x="139" y="-223" type="line"/>
      <point x="282" y="563" type="line" smooth="yes"/>
      <point x="301" y="662"/>
      <point x="346" y="695"/>
      <point x="417" y="695" type="curve" smooth="yes"/>
      <point x="468" y="695"/>
      <point x="502" y="678"/>
      <point x="516" y="651" type="curve"/>
      <point x="538" y="669"/>
      <point x="519" y="706"/>
      <point x="485" y="705" type="curve"/>
      <point x="467" y="613" type="line"/>
      <point x="555" y="613" type="line"/>
      <point x="574" y="715" type="line"/>
      <point x="563" y="724"/>
      <point x="508" y="752"/>
    </contour>
  </outline>
</glyph>
<glyph name="f.short" format="2">
  <advance width="412"/>
  <outline>
    <contour>
      <point x="60" y="508" type="line"/>
      <point x="50" y="453" type="line"/>
      <point x="427" y="453" type="line"/>
      <point x="437" y="508" type="line"/>
    </contour>
    <contour>
      <point x="139" y="-223" type="line"/>
      <point x="282" y="563" type="line" smooth="yes"/>
      <point x="298" y="662"/>
      <point x="336" y="694"/>
      <point x="406" y="694" type="curve" smooth="yes"/>
      <point x="436" y="694"/>
      <point x="463" y="688"/>
      <point x="473" y="685" type="curve"/>
      <point x="484" y="741" type="line"/>
      <point x="476" y="744"/>
      <point x="446" y="751"/>
      <point x="403" y="751" type="curve" smooth="yes"/>
      <point x="289" y="751"/>
      <point x="200" y="699"/>
      <point x="181" y="556" type="curve" smooth="yes"/>
      <point x="63" y="-223" type="line"/>
    </contour>
  </outline>
</glyph>
<glyph name="f_b" format="2">
  <advance width="1059"/>
  <outline>
    <contour>
      <point x="60" y="508" type="line"/>
      <point x="50" y="453" type="line"/>
      <point x="436" y="453" type="line"/>
      <point x="447" y="508" type="line"/>
    </contour>
    <contour>
      <point x="674" y="-12" type="curve" smooth="yes"/>
      <point x="869" y="-12"/>
      <point x="1009" y="140"/>
      <point x="1009" y="315" type="curve" smooth="yes"/>
      <point x="1009" y="449"/>
      <point x="935" y="518"/>
      <point x="815" y="518" type="curve" smooth="yes"/>
      <point x="700" y="518"/>
      <point x="624" y="443"/>
      <point x="539" y="314" type="curve"/>
      <point x="565" y="285" type="line"/>
      <point x="648" y="400"/>
      <point x="719" y="459"/>
      <point x="800" y="459" type="curve" smooth="yes"/>
      <point x="874" y="459"/>
      <point x="908" y="413"/>
      <point x="908" y="322" type="curve" smooth="yes"/>
      <point x="908" y="177"/>
      <point x="812" y="47"/>
      <point x="677" y="47" type="curve" smooth="yes"/>
      <point x="595" y="47"/>
      <point x="534" y="83"/>
      <point x="514" y="143" type="curve"/>
      <point x="499" y="110"/>
      <point x="508" y="82"/>
      <point x="541" y="59" type="curve"/>
      <point x="675" y="735" type="line"/>
      <point x="478" y="735" type="line"/>
      <point x="573" y="695" type="line"/>
      <point x="446" y="64" type="line"/>
      <point x="492" y="25"/>
      <point x="566" y="-12"/>
    </contour>
    <contour>
      <point x="421" y="695" type="curve" smooth="yes"/>
      <point x="506" y="695"/>
      <point x="560" y="662"/>
      <point x="593" y="620" type="curve"/>
      <point x="625" y="683" type="line"/>
      <point x="590" y="712"/>
      <point x="524" y="752"/>
      <point x="423" y="752" type="curve" smooth="yes"/>
      <point x="304" y="752"/>
      <point x="201" y="700"/>
      <point x="180" y="555" type="curve" smooth="yes"/>
      <point x="63" y="-223" type="line"/>
      <point x="139" y="-223" type="line"/>
      <point x="282" y="563" type="line" smooth="yes"/>
      <point x="300" y="662"/>
      <point x="345" y="695"/>
    </contour>
  </outline>
</glyph>
<glyph name="f_f_b.alt" format="2">
  <advance width="1413"/>
  <outline>
    <contour>
      <point x="60" y="508" type="line"/>
      <point x="50" y="453" type="line"/>
      <point x="448" y="453" type="line"/>
      <point x="459" y="508" type="line"/>
    </contour>
    <contour>
      <point x="414" y="508" type="line"/>
      <point x="404" y="453" type="line"/>
      <point x="791" y="453" type="line"/>
      <point x="801" y="508" type="line"/>
    </contour>
    <contour>
      <point x="1028" y="-12" type="curve" smooth="yes"/>
      <point x="1223" y="-12"/>
      <point x="1363" y="140"/>
      <point x="1363" y="315" type="curve" smooth="yes"/>
      <point x="1363" y="449"/>
      <point x="1289" y="518"/>
      <point x="1168" y="518" type="curve" smooth="yes"/>
      <point x="1054" y="518"/>
      <point x="978" y="443"/>
      <point x="893" y="314" type="curve"/>
      <point x="919" y="285" type="line"/>
      <point x="1002" y="400"/>
      <point x="1072" y="459"/>
      <point x="1154" y="459" type="curve" smooth="yes"/>
      <point x="1228" y="459"/>
      <point x="1262" y="413"/>
      <point x="1262" y="322" type="curve" smooth="yes"/>
      <point x="1262" y="177"/>
      <point x="1166" y="47"/>
      <point x="1031" y="47" type="curve" smooth="yes"/>
      <point x="949" y="47"/>
      <point x="888" y="83"/>
      <point x="868" y="143" type="curve"/>
      <point x="853" y="110"/>
      <point x="862" y="82"/>
      <point x="894" y="59" type="curve"/>
      <point x="1028" y="735" type="line"/>
      <point x="832" y="735" type="line"/>
      <point x="927" y="695" type="line"/>
      <point x="800" y="64" type="line"/>
      <point x="846" y="25"/>
      <point x="920" y="-12"/>
    </contour>
    <contour>
      <point x="438" y="675" type="curve" smooth="yes"/>
      <point x="510" y="675"/>
      <point x="560" y="653"/>
      <point x="582" y="607" type="curve"/>
      <point x="604" y="644"/>
      <point x="589" y="700"/>
      <point x="552" y="679" type="curve"/>
      <point x="532" y="535" type="line"/>
      <point x="603" y="557" type="line"/>
      <point x="632" y="659" type="line"/>
      <point x="612" y="695"/>
      <point x="548" y="732"/>
      <point x="438" y="732" type="curve" smooth="yes"/>
      <point x="293" y="732"/>
      <point x="195" y="668"/>
      <point x="178" y="548" type="curve" smooth="yes"/>
      <point x="63" y="-223" type="line"/>
      <point x="139" y="-223" type="line"/>
      <point x="279" y="549" type="line" smooth="yes"/>
      <point x="295" y="636"/>
      <point x="339" y="675"/>
    </contour>
    <contour>
      <point x="775" y="695" type="curve" smooth="yes"/>
      <point x="860" y="695"/>
      <point x="914" y="662"/>
      <point x="947" y="620" type="curve"/>
      <point x="978" y="683" type="line"/>
      <point x="944" y="712"/>
      <point x="878" y="752"/>
      <point x="777" y="752" type="curve" smooth="yes"/>
      <point x="658" y="752"/>
      <point x="555" y="700"/>
      <point x="534" y="555" type="curve" smooth="yes"/>
      <point x="422" y="-193" type="line"/>
      <point x="498" y="-193" type="line"/>
      <point x="636" y="563" type="line" smooth="yes"/>
      <point x="654" y="662"/>
      <point x="699" y="695"/>
    </contour>
  </outline>
</glyph>
<glyph name="f_f_k" format="2">
  <advance width="1342"/>
  <outline>
    <contour>
      <point x="60" y="508" type="line"/>
      <point x="50" y="453" type="line"/>
      <point x="448" y="453" type="line"/>
      <point x="459" y="508" type="line"/>
    </contour>
    <contour>
      <point x="139" y="-223" type="line"/>
      <point x="279" y="550" type="line" smooth="yes"/>
      <point x="298" y="653"/>
      <point x="338" y="681"/>
      <point x="399" y="681" type="curve" smooth="yes"/>
      <point x="434" y="681"/>
      <point x="465" y="672"/>
      <point x="486" y="665" type="curve"/>
      <point x="497" y="724" type="line"/>
      <point x="483" y="730"/>
      <point x="445" y="738"/>
      <point x="399" y="738" type="curve" smooth="yes"/>
      <point x="297" y="738"/>
      <point x="199" y="690"/>
      <point x="177" y="543" type="curve" smooth="yes"/>
      <point x="63" y="-223" type="line"/>
    </contour>
    <contour>
      <point x="414" y="508" type="line"/>
      <point x="404" y="453" type="line"/>
      <point x="791" y="453" type="line"/>
      <point x="801" y="508" type="line"/>
    </contour>
    <contour>
      <point x="498" y="-193" type="line"/>
      <point x="636" y="563" type="line" smooth="yes"/>
      <point x="654" y="662"/>
      <point x="699" y="695"/>
      <point x="775" y="695" type="curve" smooth="yes"/>
      <point x="860" y="695"/>
      <point x="914" y="662"/>
      <point x="947" y="620" type="curve"/>
      <point x="978" y="683" type="line"/>
      <point x="944" y="712"/>
      <point x="878" y="752"/>
      <point x="777" y="752" type="curve" smooth="yes"/>
      <point x="658" y="752"/>
      <point x="555" y="700"/>
      <point x="534" y="555" type="curve" smooth="yes"/>
      <point x="422" y="-193" type="line"/>
    </contour>
    <contour>
      <point x="1140" y="156" type="line" smooth="yes"/>
      <point x="1166" y="99"/>
      <point x="1197" y="64"/>
      <point x="1229" y="64" type="curve" smooth="yes"/>
      <point x="1260" y="64"/>
      <point x="1292" y="76"/>
      <point x="1305" y="80" type="curve"/>
      <point x="1295" y="27" type="line"/>
      <point x="1275" y="11"/>
      <point x="1239" y="-7"/>
      <point x="1202" y="-7" type="curve" smooth="yes"/>
      <point x="1133" y="-7"/>
      <point x="1092" y="42"/>
      <point x="1052" y="133" type="curve"/>
      <point x="981" y="286" type="line"/>
      <point x="982" y="291" type="line"/>
      <point x="1069" y="364"/>
      <point x="1156" y="436"/>
      <point x="1243" y="508" type="curve"/>
      <point x="1340" y="508" type="line"/>
      <point x="1340" y="498" type="line"/>
      <point x="1233" y="417"/>
      <point x="1126" y="337"/>
      <point x="1018" y="256" type="curve"/>
      <point x="1064" y="313" type="line"/>
    </contour>
    <contour>
      <point x="787" y="0" type="line"/>
      <point x="883" y="0" type="line"/>
      <point x="1028" y="735" type="line"/>
      <point x="832" y="735" type="line"/>
      <point x="926" y="695" type="line"/>
    </contour>
  </outline>
</glyph>
<glyph name="four.old" format="2">
  <advance width="644"/>
  <outline>
    <contour>
      <point x="2" y="57" type="line"/>
      <point x="588" y="57" type="line"/>
      <point x="599" y="127" type="line"/>
      <point x="46" y="127" type="line"/>
      <point x="53" y="80" type="line"/>
      <point x="488" y="526" type="line"/>
      <point x="489" y="548" type="line"/>
      <point x="428" y="548" type="line"/>
      <point x="16" y="132" type="line"/>
    </contour>
    <contour>
      <point x="421" y="-135" type="line"/>
      <point x="559" y="548" type="line"/>
      <point x="464" y="548" type="line"/>
      <point x="457" y="513" type="line"/>
      <point x="326" y="-135" type="line"/>
    </contour>
  </outline>
</glyph>
<glyph name="four.oldprop" format="2">
  <advance width="685"/>
  <outline>
    <contour>
      <point x="14" y="50" type="line"/>
      <point x="633" y="50" type="line"/>
      <point x="646" y="119" type="line"/>
      <point x="59" y="119" type="line"/>
      <point x="65" y="74" type="line"/>
      <point x="499" y="500" type="line"/>
      <point x="532" y="548" type="line"/>
      <point x="457" y="548" type="line"/>
      <point x="28" y="125" type="line"/>
    </contour>
    <contour>
      <point x="451" y="-135" type="line"/>
      <point x="588" y="548" type="line"/>
      <point x="499" y="548" type="line"/>
      <point x="490" y="525" type="line"/>
      <point x="357" y="-135" type="line"/>
    </contour>
  </outline>
</glyph>
<glyph name="four.prop" format="2">
  <advance width="686"/>
  <outline>
    <contour>
      <point x="12" y="112" type="line"/>
      <point x="631" y="112" type="line"/>
      <point x="644" y="181" type="line"/>
      <point x="58" y="181" type="line"/>
      <point x="64" y="136" type="line"/>
      <point x="502" y="559" type="line"/>
      <point x="535" y="609" type="line"/>
      <point x="460" y="609" type="line"/>
      <point x="27" y="187" type="line"/>
    </contour>
    <contour>
      <point x="453" y="-77" type="line"/>
      <point x="591" y="609" type="line"/>
      <point x="502" y="609" type="line"/>
      <point x="493" y="588" type="line"/>
      <point x="359" y="-77" type="line"/>
    </contour>
  </outline>
</glyph>
<glyph name="franc.proportional" format="2">
  <advance width="685"/>
  <outline>
    <contour>
      <point x="-3" y="0" type="line"/>
      <point x="336" y="0" type="line"/>
      <point x="346" y="48" type="line"/>
      <point x="327" y="48" type="line" smooth="yes"/>
      <point x="277" y="48"/>
      <point x="217" y="49"/>
      <point x="224" y="84" type="curve" smooth="yes"/>
      <point x="342" y="652" type="line"/>
      <point x="487" y="652" type="line" smooth="yes"/>
      <point x="586" y="652"/>
      <point x="624" y="645"/>
      <point x="622" y="609" type="curve" smooth="yes"/>
      <point x="618" y="525" type="line"/>
      <point x="679" y="525" type="line"/>
      <point x="713" y="710" type="line"/>
      <point x="142" y="710" type="line"/>
      <point x="132" y="662" type="line"/>
      <point x="145" y="662" type="line" smooth="yes"/>
      <point x="201" y="662"/>
      <point x="242" y="655"/>
      <point x="236" y="626" type="curve" smooth="yes"/>
      <point x="124" y="84" type="line" smooth="yes"/>
      <point x="119" y="55"/>
      <point x="76" y="48"/>
      <point x="20" y="48" type="curve" smooth="yes"/>
      <point x="7" y="48" type="line"/>
    </contour>
    <contour>
      <point x="256" y="403" type="curve"/>
      <point x="246" y="350" type="line"/>
      <point x="346" y="347"/>
      <point x="448" y="345"/>
      <point x="548" y="342" type="curve"/>
      <point x="561" y="411" type="line"/>
      <point x="460" y="408"/>
      <point x="357" y="406"/>
    </contour>
    <contour>
      <point x="44" y="231" type="line"/>
      <point x="35" y="178" type="line"/>
      <point x="419" y="178" type="line"/>
      <point x="429" y="231" type="line"/>
    </contour>
  </outline>
</glyph>
<glyph name="hungarumlaut.uc" format="2">
  <advance width="575"/>
  <anchor x="319" y="694" name="_top"/>
  <outline>
    <contour>
      <point x="253" y="854" type="curve" smooth="yes"/>
      <point x="219" y="781" type="line"/>
      <point x="218" y="757" type="line"/>
      <point x="250" y="757" type="line"/>
      <point x="309" y="800" type="line" smooth="yes"/>
      <point x="346" y="832"/>
      <point x="364" y="848"/>
      <point x="364" y="875" type="curve" smooth="yes"/>
      <point x="364" y="898"/>
      <point x="345" y="913"/>
      <point x="320" y="913" type="curve" smooth="yes"/>
      <point x="292" y="913"/>
      <point x="271" y="899"/>
    </contour>
    <contour>
      <point x="437" y="854" type="curve" smooth="yes"/>
      <point x="403" y="781" type="line"/>
      <point x="401" y="757" type="line"/>
      <point x="434" y="757" type="line"/>
      <point x="492" y="800" type="line" smooth="yes"/>
      <point x="530" y="832"/>
      <point x="547" y="848"/>
      <point x="547" y="875" type="curve" smooth="yes"/>
      <point x="547" y="898"/>
      <point x="528" y="913"/>
      <point x="503" y="913" type="curve" smooth="yes"/>
      <point x="475" y="913"/>
      <point x="454" y="899"/>
    </contour>
  </outline>
</glyph>
<glyph name="liraTurkish" format="2">
  <advance width="644"/>
  <outline>
    <contour>
      <point x="33" y="248" type="line"/>
      <point x="23" y="193" type="line"/>
      <point x="503" y="368" type="line"/>
      <point x="513" y="423" type="line"/>
    </contour>
    <contour>
      <point x="66" y="412" type="line"/>
      <point x="57" y="357" type="line"/>
      <point x="536" y="532" type="line"/>
      <point x="546" y="587" type="line"/>
    </contour>
    <contour>
      <point x="268" y="58" type="curve" smooth="yes"/>
      <point x="203" y="58" type="line"/>
      <point x="320" y="626" type="line" smooth="yes"/>
      <point x="325" y="655"/>
      <point x="367" y="662"/>
      <point x="424" y="662" type="curve" smooth="yes"/>
      <point x="436" y="662" type="line"/>
      <point x="447" y="710" type="line"/>
      <point x="128" y="710" type="line"/>
      <point x="119" y="662" type="line"/>
      <point x="129" y="662" type="line" smooth="yes"/>
      <point x="185" y="662"/>
      <point x="225" y="655"/>
      <point x="220" y="626" type="curve" smooth="yes"/>
      <point x="109" y="84" type="line" smooth="yes"/>
      <point x="103" y="55"/>
      <point x="61" y="48"/>
      <point x="4" y="48" type="curve" smooth="yes"/>
      <point x="-7" y="48" type="line"/>
      <point x="-17" y="0" type="line"/>
      <point x="242" y="0" type="line" smooth="yes"/>
      <point x="455" y="0"/>
      <point x="578" y="92"/>
      <point x="610" y="276" type="curve"/>
      <point x="536" y="299" type="line"/>
      <point x="514" y="137"/>
      <point x="429" y="58"/>
    </contour>
  </outline>
</glyph>
<glyph name="n.italic" format="2">
  <advance width="742"/>
  <outline>
    <contour>
      <point x="-9" y="0" type="line"/>
      <point x="276" y="0" type="line"/>
      <point x="285" y="45" type="line"/>
      <point x="282" y="45" type="line" smooth="yes"/>
      <point x="250" y="45"/>
      <point x="200" y="48"/>
      <point x="201" y="55" type="curve" smooth="yes"/>
      <point x="269" y="391" type="line"/>
      <point x="257" y="376" type="line"/>
      <point x="283" y="508" type="line"/>
      <point x="95" y="508" type="line"/>
      <point x="85" y="462" type="line"/>
      <point x="96" y="460" type="line" smooth="yes"/>
      <point x="152" y="450"/>
      <point x="178" y="444"/>
      <point x="173" y="415" type="curve" smooth="yes"/>
      <point x="105" y="81" type="line" smooth="yes"/>
      <point x="99" y="52"/>
      <point x="58" y="45"/>
      <point x="3" y="45" type="curve" smooth="yes"/>
      <point x="0" y="45" type="line"/>
    </contour>
    <contour>
      <point x="633" y="325" type="line" smooth="yes"/>
      <point x="640" y="357"/>
      <point x="643" y="383"/>
      <point x="643" y="401" type="curve" smooth="yes"/>
      <point x="643" y="475"/>
      <point x="584" y="518"/>
      <point x="497" y="518" type="curve" smooth="yes"/>
      <point x="374" y="518"/>
      <point x="288" y="438"/>
      <point x="198" y="315" type="curve"/>
      <point x="226" y="290" type="line"/>
      <point x="313" y="402"/>
      <point x="389" y="455"/>
      <point x="468" y="455" type="curve" smooth="yes"/>
      <point x="521" y="455"/>
      <point x="541" y="431"/>
      <point x="541" y="392" type="curve" smooth="yes"/>
      <point x="541" y="376"/>
      <point x="536" y="355"/>
      <point x="529" y="321" type="curve" smooth="yes"/>
      <point x="475" y="55" type="line" smooth="yes"/>
      <point x="474" y="48"/>
      <point x="421" y="45"/>
      <point x="389" y="45" type="curve" smooth="yes"/>
      <point x="387" y="45" type="line"/>
      <point x="377" y="0" type="line"/>
      <point x="663" y="0" type="line"/>
      <point x="672" y="45" type="line"/>
      <point x="670" y="45" type="line" smooth="yes"/>
      <point x="614" y="45"/>
      <point x="578" y="52"/>
      <point x="583" y="81" type="curve" smooth="yes"/>
    </contour>
  </outline>
</glyph>
<glyph name="nine.linprop" format="2">
  <advance width="664"/>
  <outline>
    <contour>
      <point x="49" y="46" type="line"/>
      <point x="249" y="62"/>
      <point x="389" y="137"/>
      <point x="460" y="264" type="curve" smooth="yes"/>
      <point x="494" y="324"/>
      <point x="512" y="396"/>
      <point x="512" y="479" type="curve" smooth="yes"/>
      <point x="512" y="599"/>
      <point x="451" y="659"/>
      <point x="348" y="659" type="curve" smooth="yes"/>
      <point x="268" y="659"/>
      <point x="214" y="622"/>
      <point x="185" y="566" type="curve" smooth="yes"/>
      <point x="169" y="535"/>
      <point x="161" y="498"/>
      <point x="161" y="458" type="curve" smooth="yes"/>
      <point x="161" y="382"/>
      <point x="208" y="339"/>
      <point x="292" y="339" type="curve" smooth="yes"/>
      <point x="391" y="339"/>
      <point x="470" y="394"/>
      <point x="530" y="480" type="curve"/>
      <point x="532" y="427" type="line"/>
      <point x="486" y="348"/>
      <point x="390" y="278"/>
      <point x="273" y="278" type="curve" smooth="yes"/>
      <point x="142" y="278"/>
      <point x="57" y="355"/>
      <point x="57" y="463" type="curve" smooth="yes"/>
      <point x="57" y="610"/>
      <point x="180" y="720"/>
      <point x="352" y="720" type="curve" smooth="yes"/>
      <point x="509" y="720"/>
      <point x="613" y="630"/>
      <point x="613" y="473" type="curve" smooth="yes"/>
      <point x="613" y="196"/>
      <point x="400" y="11"/>
      <point x="50" y="-15" type="curve"/>
    </contour>
  </outline>
</glyph>
<glyph name="nine.prop" format="2">
  <advance width="662"/>
  <outline>
    <contour>
      <point x="55" y="-31" type="line"/>
      <point x="281" y="-21"/>
      <point x="432" y="69"/>
      <point x="489" y="222" type="curve" smooth="yes"/>
      <point x="507" y="267"/>
      <point x="515" y="319"/>
      <point x="515" y="376" type="curve" smooth="yes"/>
      <point x="515" y="497"/>
      <point x="455" y="557"/>
      <point x="353" y="557" type="curve" smooth="yes"/>
      <point x="268" y="557"/>
      <point x="211" y="514"/>
      <point x="185" y="450" type="curve" smooth="yes"/>
      <point x="173" y="422"/>
      <point x="166" y="390"/>
      <point x="166" y="357" type="curve" smooth="yes"/>
      <point x="166" y="282"/>
      <point x="213" y="239"/>
      <point x="297" y="239" type="curve" smooth="yes"/>
      <point x="395" y="239"/>
      <point x="474" y="293"/>
      <point x="533" y="380" type="curve"/>
      <point x="535" y="326" type="line"/>
      <point x="489" y="247"/>
      <point x="394" y="177"/>
      <point x="278" y="177" type="curve" smooth="yes"/>
      <point x="148" y="177"/>
      <point x="63" y="254"/>
      <point x="63" y="361" type="curve" smooth="yes"/>
      <point x="63" y="509"/>
      <point x="185" y="619"/>
      <point x="357" y="619" type="curve" smooth="yes"/>
      <point x="513" y="619"/>
      <point x="617" y="530"/>
      <point x="617" y="371" type="curve" smooth="yes"/>
      <point x="617" y="105"/>
      <point x="405" y="-78"/>
      <point x="55" y="-93" type="curve"/>
    </contour>
  </outline>
</glyph>
<glyph name="one.midprop" format="2">
  <advance width="560"/>
  <outline>
    <contour>
      <point x="314" y="84" type="curve" smooth="yes"/>
      <point x="421" y="609" type="line"/>
      <point x="354" y="609" type="line"/>
      <point x="303" y="558"/>
      <point x="230" y="535"/>
      <point x="132" y="533" type="curve"/>
      <point x="121" y="471" type="line"/>
      <point x="210" y="469"/>
      <point x="297" y="500"/>
      <point x="328" y="547" type="curve"/>
      <point x="336" y="560"/>
      <point x="328" y="558"/>
      <point x="307" y="536" type="curve"/>
      <point x="214" y="84" type="line" smooth="yes"/>
      <point x="208" y="55"/>
      <point x="168" y="48"/>
      <point x="90" y="48" type="curve" smooth="yes"/>
      <point x="49" y="48" type="line"/>
      <point x="39" y="0" type="line"/>
      <point x="452" y="0" type="line"/>
      <point x="461" y="48" type="line"/>
      <point x="425" y="48" type="line" smooth="yes"/>
      <point x="350" y="48"/>
      <point x="308" y="55"/>
    </contour>
  </outline>
</glyph>
<glyph name="seven.old" format="2">
  <advance width="644"/>
  <outline>
    <contour>
      <point x="323" y="469" type="line" smooth="yes"/>
      <point x="225" y="469"/>
      <point x="183" y="462"/>
      <point x="170" y="426" type="curve" smooth="yes"/>
      <point x="140" y="336" type="line"/>
      <point x="82" y="336" type="line"/>
      <point x="124" y="548" type="line"/>
      <point x="650" y="548" type="line"/>
      <point x="636" y="470" type="line"/>
      <point x="463" y="305"/>
      <point x="322" y="175"/>
      <point x="246" y="-135" type="curve"/>
      <point x="142" y="-135" type="line"/>
      <point x="222" y="170"/>
      <point x="489" y="426"/>
      <point x="579" y="485" type="curve"/>
      <point x="590" y="469" type="line"/>
    </contour>
  </outline>
</glyph>
<glyph name="seven.prop" format="2">
  <advance width="622"/>
  <outline>
    <contour>
      <point x="311" y="529" type="line" smooth="yes"/>
      <point x="212" y="529"/>
      <point x="169" y="522"/>
      <point x="158" y="486" type="curve" smooth="yes"/>
      <point x="128" y="396" type="line"/>
      <point x="71" y="396" type="line"/>
      <point x="111" y="609" type="line"/>
      <point x="641" y="609" type="line"/>
      <point x="626" y="530" type="line"/>
      <point x="442" y="365"/>
      <point x="327" y="250"/>
      <point x="241" y="-77" type="curve"/>
      <point x="136" y="-77" type="line"/>
      <point x="227" y="244"/>
      <point x="471" y="487"/>
      <point x="570" y="543" type="curve"/>
      <point x="580" y="529" type="line"/>
    </contour>
  </outline>
</glyph>
<glyph name="six.old" format="2">
  <advance width="644"/>
  <outline>
    <contour>
      <point x="309" y="-10" type="curve" smooth="yes"/>
      <point x="469" y="-10"/>
      <point x="600" y="96"/>
      <point x="600" y="256" type="curve" smooth="yes"/>
      <point x="600" y="379"/>
      <point x="504" y="451"/>
      <point x="377" y="451" type="curve" smooth="yes"/>
      <point x="267" y="451"/>
      <point x="173" y="383"/>
      <point x="122" y="295" type="curve"/>
      <point x="124" y="244" type="line"/>
      <point x="185" y="334"/>
      <point x="266" y="390"/>
      <point x="359" y="390" type="curve" smooth="yes"/>
      <point x="453" y="390"/>
      <point x="494" y="337"/>
      <point x="494" y="261" type="curve" smooth="yes"/>
      <point x="494" y="245"/>
      <point x="492" y="226"/>
      <point x="487" y="210" type="curve" smooth="yes"/>
      <point x="468" y="119"/>
      <point x="404" y="51"/>
      <point x="311" y="51" type="curve" smooth="yes"/>
      <point x="211" y="51"/>
      <point x="145" y="114"/>
      <point x="145" y="224" type="curve" smooth="yes"/>
      <point x="145" y="286"/>
      <point x="156" y="344"/>
      <point x="177" y="397" type="curve" smooth="yes"/>
      <point x="242" y="549"/>
      <point x="401" y="654"/>
      <point x="604" y="679" type="curve"/>
      <point x="604" y="740" type="line"/>
      <point x="268" y="706"/>
      <point x="43" y="485"/>
      <point x="43" y="239" type="curve" smooth="yes"/>
      <point x="43" y="88"/>
      <point x="153" y="-10"/>
    </contour>
  </outline>
</glyph>
<glyph name="six.prop" format="2">
  <advance width="661"/>
  <outline>
    <contour>
      <point x="613" y="678" type="line"/>
      <point x="401" y="659"/>
      <point x="253" y="556"/>
      <point x="190" y="410" type="curve" smooth="yes"/>
      <point x="166" y="356"/>
      <point x="154" y="296"/>
      <point x="154" y="233" type="curve" smooth="yes"/>
      <point x="154" y="113"/>
      <point x="217" y="52"/>
      <point x="318" y="52" type="curve" smooth="yes"/>
      <point x="406" y="52"/>
      <point x="466" y="104"/>
      <point x="491" y="179" type="curve" smooth="yes"/>
      <point x="500" y="206"/>
      <point x="504" y="234"/>
      <point x="504" y="265" type="curve" smooth="yes"/>
      <point x="504" y="350"/>
      <point x="458" y="391"/>
      <point x="374" y="391" type="curve" smooth="yes"/>
      <point x="278" y="391"/>
      <point x="197" y="336"/>
      <point x="137" y="249" type="curve"/>
      <point x="135" y="303" type="line"/>
      <point x="181" y="382"/>
      <point x="278" y="453"/>
      <point x="393" y="453" type="curve" smooth="yes"/>
      <point x="522" y="453"/>
      <point x="608" y="377"/>
      <point x="608" y="260" type="curve" smooth="yes"/>
      <point x="608" y="107"/>
      <point x="480" y="-10"/>
      <point x="314" y="-10" type="curve" smooth="yes"/>
      <point x="159" y="-10"/>
      <point x="53" y="80"/>
      <point x="53" y="237" type="curve" smooth="yes"/>
      <point x="53" y="493"/>
      <point x="269" y="711"/>
      <point x="612" y="740" type="curve"/>
    </contour>
  </outline>
</glyph>
<glyph name="t.italic" format="2">
  <advance width="429"/>
  <outline>
    <contour>
      <point x="9" y="451" type="line"/>
      <point x="392" y="451" type="line"/>
      <point x="392" y="508" type="line"/>
      <point x="199" y="508" type="line"/>
      <point x="124" y="553" type="line"/>
      <point x="124" y="512"/>
      <point x="84" y="503"/>
      <point x="15" y="503" type="curve" smooth="yes"/>
      <point x="9" y="503" type="line"/>
    </contour>
    <contour>
      <point x="219" y="174" type="curve" smooth="yes"/>
      <point x="219" y="648" type="line"/>
      <point x="124" y="648" type="line"/>
      <point x="124" y="500" type="line"/>
      <point x="116" y="492" type="line"/>
      <point x="116" y="173" type="line" smooth="yes"/>
      <point x="116" y="30"/>
      <point x="215" y="-10"/>
      <point x="316" y="-10" type="curve" smooth="yes"/>
      <point x="352" y="-10"/>
      <point x="385" y="-3"/>
      <point x="406" y="5" type="curve"/>
      <point x="406" y="62" type="line"/>
      <point x="387" y="57"/>
      <point x="358" y="50"/>
      <point x="326" y="50" type="curve" smooth="yes"/>
      <point x="261" y="50"/>
      <point x="219" y="85"/>
    </contour>
  </outline>
</glyph>
<glyph name="thai:baht.proportional" format="2">
  <advance width="732"/>
  <outline>
    <contour>
      <point x="433" y="790" type="line"/>
      <point x="411" y="676" type="line"/>
      <point x="411" y="660" type="line"/>
      <point x="286" y="46" type="line"/>
      <point x="279" y="36" type="line"/>
      <point x="251" y="-110" type="line"/>
      <point x="317" y="-110" type="line"/>
      <point x="346" y="38" type="line"/>
      <point x="344" y="50" type="line"/>
      <point x="470" y="662" type="line"/>
      <point x="476" y="673" type="line"/>
      <point x="498" y="790" type="line"/>
    </contour>
    <contour>
      <point x="438" y="365" type="line"/>
      <point x="603" y="365"/>
      <point x="704" y="435"/>
      <point x="704" y="541" type="curve" smooth="yes"/>
      <point x="704" y="630"/>
      <point x="620" y="700"/>
      <point x="443" y="700" type="curve" smooth="yes"/>
      <point x="104" y="700" type="line"/>
      <point x="95" y="652" type="line"/>
      <point x="109" y="652" type="line" smooth="yes"/>
      <point x="149" y="652"/>
      <point x="179" y="645"/>
      <point x="173" y="616" type="curve" smooth="yes"/>
      <point x="65" y="94" type="line" smooth="yes"/>
      <point x="59" y="65"/>
      <point x="26" y="58"/>
      <point x="-14" y="58" type="curve" smooth="yes"/>
      <point x="-27" y="58" type="line"/>
      <point x="-36" y="10" type="line"/>
      <point x="357" y="10" type="line" smooth="yes"/>
      <point x="561" y="10"/>
      <point x="675" y="88"/>
      <point x="675" y="217" type="curve" smooth="yes"/>
      <point x="675" y="309"/>
      <point x="590" y="375"/>
      <point x="399" y="384" type="curve"/>
      <point x="509" y="356" type="line"/>
      <point x="515" y="387" type="line"/>
    </contour>
    <contour>
      <point x="220" y="399" type="line"/>
      <point x="272" y="643" type="line"/>
      <point x="450" y="643" type="line" smooth="yes"/>
      <point x="563" y="643"/>
      <point x="608" y="605"/>
      <point x="608" y="539" type="curve" smooth="yes"/>
      <point x="608" y="451"/>
      <point x="549" y="399"/>
      <point x="428" y="399" type="curve"/>
    </contour>
    <contour>
      <point x="152" y="66" type="line"/>
      <point x="210" y="345" type="line"/>
      <point x="405" y="345" type="line" smooth="yes"/>
      <point x="531" y="345"/>
      <point x="579" y="284"/>
      <point x="579" y="220" type="curve" smooth="yes"/>
      <point x="579" y="128"/>
      <point x="524" y="66"/>
      <point x="372" y="66" type="curve" smooth="yes"/>
    </contour>
  </outline>
</glyph>
<glyph name="tilde.uc" format="2">
  <advance width="575"/>
  <anchor x="294" y="694" name="_top"/>
  <outline>
    <contour>
      <point x="402" y="765" type="curve" smooth="yes"/>
      <point x="458" y="765"/>
      <point x="504" y="799"/>
      <point x="529" y="867" type="curve"/>
      <point x="478" y="890" type="line"/>
      <point x="460" y="854"/>
      <point x="443" y="835"/>
      <point x="418" y="835" type="curve" smooth="yes"/>
      <point x="368" y="835"/>
      <point x="341" y="886"/>
      <point x="265" y="886" type="curve" smooth="yes"/>
      <point x="200" y="886"/>
      <point x="166" y="853"/>
      <point x="144" y="784" type="curve"/>
      <point x="196" y="761" type="line"/>
      <point x="208" y="797"/>
      <point x="225" y="817"/>
      <point x="252" y="817" type="curve" smooth="yes"/>
      <point x="295" y="817"/>
      <point x="325" y="765"/>
    </contour>
  </outline>
</glyph>
<glyph name="two.lintab" format="2">
  <advance width="644"/>
  <outline>
    <contour>
      <point x="-12" y="0" type="line"/>
      <point x="5" y="93" type="line"/>
      <point x="290" y="270"/>
      <point x="488" y="384"/>
      <point x="488" y="547" type="curve" smooth="yes"/>
      <point x="488" y="620"/>
      <point x="428" y="659"/>
      <point x="337" y="659" type="curve" smooth="yes"/>
      <point x="237" y="659"/>
      <point x="172" y="618"/>
      <point x="143" y="596" type="curve"/>
      <point x="148" y="613"/>
      <point x="164" y="648"/>
      <point x="201" y="649" type="curve"/>
      <point x="181" y="526" type="line"/>
      <point x="85" y="526" type="line"/>
      <point x="108" y="654" type="line"/>
      <point x="150" y="683"/>
      <point x="230" y="720"/>
      <point x="341" y="720" type="curve" smooth="yes"/>
      <point x="501" y="720"/>
      <point x="589" y="654"/>
      <point x="589" y="544" type="curve" smooth="yes"/>
      <point x="589" y="368"/>
      <point x="329" y="214"/>
      <point x="34" y="42" type="curve"/>
      <point x="27" y="46"/>
      <point x="25" y="69"/>
      <point x="34" y="75" type="curve"/>
      <point x="327" y="75" type="line" smooth="yes"/>
      <point x="422" y="75"/>
      <point x="460" y="82"/>
      <point x="472" y="116" type="curve" smooth="yes"/>
      <point x="499" y="192" type="line"/>
      <point x="561" y="192" type="line"/>
      <point x="524" y="0" type="line"/>
    </contour>
  </outline>
</glyph>
<glyph name="two.oldprop" format="2">
  <advance width="640"/>
  <outline>
    <contour>
      <point x="558" y="76" type="line"/>
      <point x="57" y="76" type="line"/>
      <point x="59" y="52" type="line"/>
      <point x="343" y="160"/>
      <point x="572" y="218"/>
      <point x="572" y="394" type="curve" smooth="yes"/>
      <point x="572" y="509"/>
      <point x="475" y="558"/>
      <point x="345" y="558" type="curve" smooth="yes"/>
      <point x="245" y="558"/>
      <point x="168" y="519"/>
      <point x="128" y="488" type="curve"/>
      <point x="106" y="381" type="line"/>
      <point x="201" y="381" type="line"/>
      <point x="223" y="488" type="line"/>
      <point x="195" y="483"/>
      <point x="179" y="463"/>
      <point x="167" y="436" type="curve"/>
      <point x="211" y="469"/>
      <point x="267" y="498"/>
      <point x="343" y="498" type="curve" smooth="yes"/>
      <point x="431" y="498"/>
      <point x="470" y="460"/>
      <point x="470" y="394" type="curve" smooth="yes"/>
      <point x="470" y="249"/>
      <point x="315" y="211"/>
      <point x="29" y="93" type="curve"/>
      <point x="12" y="0" type="line"/>
      <point x="546" y="0" type="line"/>
    </contour>
  </outline>
</glyph>
<glyph name="x.italic" format="2">
  <advance width="661"/>
  <outline>
    <contour>
      <point x="655" y="0" type="line"/>
      <point x="655" y="45" type="line"/>
      <point x="653" y="45" type="line"/>
      <point x="607" y="45"/>
      <point x="588" y="54"/>
      <point x="564" y="79" type="curve" smooth="yes"/>
      <point x="374" y="276" type="line"/>
      <point x="369" y="280" type="line"/>
      <point x="204" y="455" type="line"/>
      <point x="204" y="461"/>
      <point x="257" y="463"/>
      <point x="304" y="463" type="curve" smooth="yes"/>
      <point x="306" y="463" type="line"/>
      <point x="306" y="508" type="line"/>
      <point x="21" y="508" type="line"/>
      <point x="21" y="462" type="line"/>
      <point x="22" y="462" type="line"/>
      <point x="66" y="462"/>
      <point x="85" y="457"/>
      <point x="105" y="436" type="curve" smooth="yes"/>
      <point x="296" y="234" type="line"/>
      <point x="300" y="231" type="line"/>
      <point x="472" y="54" type="line"/>
      <point x="472" y="47"/>
      <point x="417" y="45"/>
      <point x="368" y="45" type="curve" smooth="yes"/>
      <point x="366" y="45" type="line"/>
      <point x="366" y="0" type="line"/>
    </contour>
    <contour>
      <point x="7" y="0" type="line"/>
      <point x="265" y="0" type="line"/>
      <point x="265" y="45" type="line"/>
      <point x="262" y="45" type="line" smooth="yes"/>
      <point x="218" y="45"/>
      <point x="168" y="53"/>
      <point x="168" y="65" type="curve"/>
      <point x="333" y="233" type="line"/>
      <point x="282" y="267" type="line"/>
      <point x="100" y="83" type="line" smooth="yes"/>
      <point x="74" y="56"/>
      <point x="42" y="45"/>
      <point x="8" y="45" type="curve"/>
      <point x="7" y="45" type="line"/>
    </contour>
    <contour>
      <point x="373" y="246" type="line"/>
      <point x="542" y="418" type="line" smooth="yes"/>
      <point x="575" y="452"/>
      <point x="602" y="463"/>
      <point x="641" y="463" type="curve"/>
      <point x="642" y="463" type="line"/>
      <point x="642" y="508" type="line"/>
      <point x="385" y="508" type="line"/>
      <point x="385" y="463" type="line"/>
      <point x="389" y="463" type="line" smooth="yes"/>
      <point x="431" y="463"/>
      <point x="482" y="455"/>
      <point x="482" y="443" type="curve"/>
      <point x="326" y="283" type="line"/>
    </contour>
  </outline>
</glyph>
<glyph name="zero.old" format="2">
  <advance width="644"/>
  <outline>
    <contour>
      <point x="288" y="-12" type="curve" smooth="yes"/>
      <point x="502" y="-12"/>
      <point x="607" y="163"/>
      <point x="607" y="313" type="curve" smooth="yes"/>
      <point x="607" y="467"/>
      <point x="499" y="558"/>
      <point x="359" y="558" type="curve" smooth="yes"/>
      <point x="145" y="558"/>
      <point x="40" y="383"/>
      <point x="40" y="232" type="curve" smooth="yes"/>
      <point x="40" y="79"/>
      <point x="148" y="-12"/>
    </contour>
    <contour>
      <point x="293" y="47" type="curve" smooth="yes"/>
      <point x="199" y="47"/>
      <point x="143" y="104"/>
      <point x="143" y="212" type="curve" smooth="yes"/>
      <point x="143" y="241"/>
      <point x="145" y="269"/>
      <point x="151" y="296" type="curve" smooth="yes"/>
      <point x="175" y="406"/>
      <point x="246" y="499"/>
      <point x="354" y="499" type="curve" smooth="yes"/>
      <point x="448" y="499"/>
      <point x="505" y="442"/>
      <point x="505" y="334" type="curve" smooth="yes"/>
      <point x="505" y="305"/>
      <point x="502" y="277"/>
      <point x="497" y="250" type="curve" smooth="yes"/>
      <point x="473" y="139"/>
      <point x="401" y="47"/>
    </contour>
  </outline>
</glyph>
<glyph name="zero.prop" format="2">
  <advance width="689"/>
  <outline>
    <contour>
      <point x="305" y="-11" type="curve" smooth="yes"/>
      <point x="524" y="-11"/>
      <point x="642" y="189"/>
      <point x="642" y="371" type="curve" smooth="yes"/>
      <point x="642" y="513"/>
      <point x="547" y="619"/>
      <point x="384" y="619" type="curve" smooth="yes"/>
      <point x="166" y="619"/>
      <point x="47" y="419"/>
      <point x="47" y="237" type="curve" smooth="yes"/>
      <point x="47" y="95"/>
      <point x="143" y="-11"/>
    </contour>
    <contour>
      <point x="310" y="49" type="curve" smooth="yes"/>
      <point x="200" y="49"/>
      <point x="149" y="110"/>
      <point x="149" y="219" type="curve" smooth="yes"/>
      <point x="149" y="246"/>
      <point x="154" y="281"/>
      <point x="163" y="314" type="curve" smooth="yes"/>
      <point x="195" y="464"/>
      <point x="266" y="559"/>
      <point x="379" y="559" type="curve" smooth="yes"/>
      <point x="489" y="559"/>
      <point x="541" y="498"/>
      <point x="541" y="389" type="curve" smooth="yes"/>
      <point x="541" y="362"/>
      <point x="536" y="327"/>
      <point x="527" y="294" type="curve" smooth="yes"/>
      <point x="495" y="144"/>
      <point x="424" y="49"/>
    </contour>
  </outline>
</glyph>
<glyph name="zero.slashold" format="2">
  <advance width="644"/>
  <outline>
    <contour>
      <point x="288" y="-12" type="curve" smooth="yes"/>
      <point x="502" y="-12"/>
      <point x="607" y="161"/>
      <point x="607" y="314" type="curve" smooth="yes"/>
      <point x="607" y="467"/>
      <point x="499" y="558"/>
      <point x="359" y="558" type="curve" smooth="yes"/>
      <point x="145" y="558"/>
      <point x="40" y="385"/>
      <point x="40" y="232" type="curve" smooth="yes"/>
      <point x="40" y="80"/>
      <point x="148" y="-12"/>
    </contour>
    <contour>
      <point x="119" y="119" type="line"/>
      <point x="548" y="372" type="line"/>
      <point x="533" y="428" type="line"/>
      <point x="100" y="173" type="line"/>
    </contour>
    <contour>
      <point x="293" y="46" type="curve" smooth="yes"/>
      <point x="199" y="46"/>
      <point x="143" y="103"/>
      <point x="143" y="211" type="curve" smooth="yes"/>
      <point x="143" y="239"/>
      <point x="145" y="267"/>
      <point x="151" y="295" type="curve" smooth="yes"/>
      <point x="175" y="410"/>
      <point x="246" y="500"/>
      <point x="354" y="500" type="curve" smooth="yes"/>
      <point x="448" y="500"/>
      <point x="505" y="443"/>
      <point x="505" y="336" type="curve" smooth="yes"/>
      <point x="505" y="307"/>
      <point x="502" y="279"/>
      <point x="497" y="251" type="curve" smooth="yes"/>
      <point x="473" y="137"/>
      <point x="401" y="46"/>
    </contour>
  </outline>
</glyph>
